<svg width="361" height="18" viewBox="0 0 361 18" fill="none" xmlns="http://www.w3.org/2000/svg">
<path d="M0.0200001 13.54C1.71333 12.18 3.04 11.0667 4 10.2C4.96 9.32 5.76667 8.40667 6.42 7.46C7.08667 6.5 7.42 5.56 7.42 4.64C7.42 3.77333 7.20667 3.09333 6.78 2.6C6.36667 2.09333 5.69333 1.84 4.76 1.84C3.85333 1.84 3.14667 2.12667 2.64 2.7C2.14667 3.26 1.88 4.01333 1.84 4.96H0.08C0.133333 3.46667 0.586667 2.31333 1.44 1.5C2.29333 0.686666 3.39333 0.279999 4.74 0.279999C6.11333 0.279999 7.2 0.659999 8 1.42C8.81333 2.18 9.22 3.22667 9.22 4.56C9.22 5.66667 8.88667 6.74667 8.22 7.8C7.56667 8.84 6.82 9.76 5.98 10.56C5.14 11.3467 4.06667 12.2667 2.76 13.32H9.64V14.84H0.0200001V13.54ZM19.8039 3.98C19.5106 2.5 18.5972 1.76 17.0639 1.76C15.8772 1.76 14.9906 2.22 14.4039 3.14C13.8172 4.04667 13.5306 5.54667 13.5439 7.64C13.8506 6.94667 14.3572 6.40667 15.0639 6.02C15.7839 5.62 16.5839 5.42 17.4639 5.42C18.8372 5.42 19.9306 5.84667 20.7439 6.7C21.5706 7.55333 21.9839 8.73333 21.9839 10.24C21.9839 11.1467 21.8039 11.96 21.4439 12.68C21.0972 13.4 20.5639 13.9733 19.8439 14.4C19.1372 14.8267 18.2772 15.04 17.2639 15.04C15.8906 15.04 14.8172 14.7333 14.0439 14.12C13.2706 13.5067 12.7306 12.66 12.4239 11.58C12.1172 10.5 11.9639 9.16667 11.9639 7.58C11.9639 2.68667 13.6706 0.239999 17.0839 0.239999C18.3906 0.239999 19.4172 0.593332 20.1639 1.3C20.9106 2.00667 21.3506 2.9 21.4839 3.98H19.8039ZM17.0839 6.96C16.5106 6.96 15.9706 7.08 15.4639 7.32C14.9572 7.54667 14.5439 7.9 14.2239 8.38C13.9172 8.84667 13.7639 9.42 13.7639 10.1C13.7639 11.1133 14.0572 11.94 14.6439 12.58C15.2306 13.2067 16.0706 13.52 17.1639 13.52C18.0972 13.52 18.8372 13.2333 19.3839 12.66C19.9439 12.0733 20.2239 11.2867 20.2239 10.3C20.2239 9.26 19.9572 8.44667 19.4239 7.86C18.8906 7.26 18.1106 6.96 17.0839 6.96ZM47.5913 1.06L43.5513 15H41.5113L38.2713 3.78L34.9113 15L32.8913 15.02L28.9913 1.06H30.9313L33.9713 12.88L37.3313 1.06H39.3713L42.5713 12.84L45.6313 1.06H47.5913ZM54.135 2.2V0.539999H57.895V15H56.055V2.2H54.135ZM60.8013 13.54C62.4946 12.18 63.8213 11.0667 64.7812 10.2C65.7413 9.32 66.5479 8.40667 67.2013 7.46C67.8679 6.5 68.2013 5.56 68.2013 4.64C68.2013 3.77333 67.9879 3.09333 67.5613 2.6C67.1479 2.09333 66.4746 1.84 65.5413 1.84C64.6346 1.84 63.9279 2.12667 63.4213 2.7C62.9279 3.26 62.6613 4.01333 62.6213 4.96H60.8613C60.9146 3.46667 61.3679 2.31333 62.2213 1.5C63.0746 0.686666 64.1746 0.279999 65.5213 0.279999C66.8946 0.279999 67.9813 0.659999 68.7813 1.42C69.5946 2.18 70.0013 3.22667 70.0013 4.56C70.0013 5.66667 69.6679 6.74667 69.0013 7.8C68.3479 8.84 67.6013 9.76 66.7613 10.56C65.9213 11.3467 64.8479 12.2667 63.5413 13.32H70.4213V14.84H60.8013V13.54ZM75.0452 5.54V12C75.0452 12.5333 75.1585 12.9133 75.3852 13.14C75.6118 13.3533 76.0052 13.46 76.5652 13.46H77.9052V15H76.2652C75.2518 15 74.4918 14.7667 73.9852 14.3C73.4785 13.8333 73.2252 13.0667 73.2252 12V5.54H71.8052V4.04H73.2252V1.28H75.0452V4.04H77.9052V5.54H75.0452ZM85.5503 3.84C86.377 3.84 87.1236 4.02 87.7903 4.38C88.457 4.72667 88.977 5.25333 89.3503 5.96C89.737 6.66667 89.9303 7.52667 89.9303 8.54V15H88.1303V8.8C88.1303 7.70667 87.857 6.87333 87.3103 6.3C86.7636 5.71333 86.017 5.42 85.0703 5.42C84.1103 5.42 83.3436 5.72 82.7703 6.32C82.2103 6.92 81.9303 7.79333 81.9303 8.94V15H80.1103V0.2H81.9303V5.6C82.2903 5.04 82.7836 4.60667 83.4103 4.3C84.0503 3.99333 84.7636 3.84 85.5503 3.84ZM102.655 15.14C101.735 15.14 100.909 14.98 100.175 14.66C99.4553 14.3267 98.8886 13.8733 98.4753 13.3C98.062 12.7133 97.8486 12.04 97.8353 11.28H99.7753C99.842 11.9333 100.109 12.4867 100.575 12.94C101.055 13.38 101.749 13.6 102.655 13.6C103.522 13.6 104.202 13.3867 104.695 12.96C105.202 12.52 105.455 11.96 105.455 11.28C105.455 10.7467 105.309 10.3133 105.015 9.98C104.722 9.64667 104.355 9.39333 103.915 9.22C103.475 9.04667 102.882 8.86 102.135 8.66C101.215 8.42 100.475 8.18 99.9153 7.94C99.3686 7.7 98.8953 7.32667 98.4953 6.82C98.1086 6.3 97.9153 5.60667 97.9153 4.74C97.9153 3.98 98.1086 3.30667 98.4953 2.72C98.882 2.13333 99.422 1.68 100.115 1.36C100.822 1.04 101.629 0.879999 102.535 0.879999C103.842 0.879999 104.909 1.20667 105.735 1.86C106.575 2.51333 107.049 3.38 107.155 4.46H105.155C105.089 3.92667 104.809 3.46 104.315 3.06C103.822 2.64667 103.169 2.44 102.355 2.44C101.595 2.44 100.975 2.64 100.495 3.04C100.015 3.42667 99.7753 3.97333 99.7753 4.68C99.7753 5.18667 99.9153 5.6 100.195 5.92C100.489 6.24 100.842 6.48667 101.255 6.66C101.682 6.82 102.275 7.00667 103.035 7.22C103.955 7.47333 104.695 7.72667 105.255 7.98C105.815 8.22 106.295 8.6 106.695 9.12C107.095 9.62667 107.295 10.32 107.295 11.2C107.295 11.88 107.115 12.52 106.755 13.12C106.395 13.72 105.862 14.2067 105.155 14.58C104.449 14.9533 103.615 15.14 102.655 15.14ZM112.194 5.54V12C112.194 12.5333 112.307 12.9133 112.534 13.14C112.76 13.3533 113.154 13.46 113.714 13.46H115.054V15H113.414C112.4 15 111.64 14.7667 111.134 14.3C110.627 13.8333 110.374 13.0667 110.374 12V5.54H108.954V4.04H110.374V1.28H112.194V4.04H115.054V5.54H112.194ZM117.839 15.12C117.492 15.12 117.199 15 116.959 14.76C116.719 14.52 116.599 14.2267 116.599 13.88C116.599 13.5333 116.719 13.24 116.959 13C117.199 12.76 117.492 12.64 117.839 12.64C118.172 12.64 118.452 12.76 118.679 13C118.919 13.24 119.039 13.5333 119.039 13.88C119.039 14.2267 118.919 14.52 118.679 14.76C118.452 15 118.172 15.12 117.839 15.12ZM137.75 15H135.93L128.61 3.9V15H126.79V1.04H128.61L135.93 12.12V1.04H137.75V15ZM150.853 9.1C150.853 9.44667 150.833 9.81333 150.793 10.2H142.033C142.099 11.28 142.466 12.1267 143.133 12.74C143.813 13.34 144.633 13.64 145.593 13.64C146.379 13.64 147.033 13.46 147.553 13.1C148.086 12.7267 148.459 12.2333 148.673 11.62H150.633C150.339 12.6733 149.753 13.5333 148.873 14.2C147.993 14.8533 146.899 15.18 145.593 15.18C144.553 15.18 143.619 14.9467 142.793 14.48C141.979 14.0133 141.339 13.3533 140.873 12.5C140.406 11.6333 140.173 10.6333 140.173 9.5C140.173 8.36667 140.399 7.37333 140.853 6.52C141.306 5.66667 141.939 5.01333 142.753 4.56C143.579 4.09333 144.526 3.86 145.593 3.86C146.633 3.86 147.553 4.08667 148.353 4.54C149.153 4.99333 149.766 5.62 150.193 6.42C150.633 7.20667 150.853 8.1 150.853 9.1ZM148.973 8.72C148.973 8.02667 148.819 7.43333 148.513 6.94C148.206 6.43333 147.786 6.05333 147.253 5.8C146.733 5.53333 146.153 5.4 145.513 5.4C144.593 5.4 143.806 5.69333 143.153 6.28C142.513 6.86667 142.146 7.68 142.053 8.72H148.973ZM167.855 4.04L164.435 15H162.555L159.915 6.3L157.275 15H155.395L151.955 4.04H153.815L156.335 13.24L159.055 4.04H160.915L163.575 13.26L166.055 4.04H167.855ZM184.753 1.06L180.213 9.74V15H178.393V9.74L173.833 1.06H175.853L179.293 8.12L182.733 1.06H184.753ZM191.453 15.18C190.426 15.18 189.493 14.9467 188.653 14.48C187.826 14.0133 187.173 13.3533 186.693 12.5C186.226 11.6333 185.993 10.6333 185.993 9.5C185.993 8.38 186.233 7.39333 186.713 6.54C187.206 5.67333 187.873 5.01333 188.713 4.56C189.553 4.09333 190.493 3.86 191.533 3.86C192.573 3.86 193.513 4.09333 194.353 4.56C195.193 5.01333 195.853 5.66667 196.333 6.52C196.826 7.37333 197.073 8.36667 197.073 9.5C197.073 10.6333 196.819 11.6333 196.313 12.5C195.819 13.3533 195.146 14.0133 194.293 14.48C193.439 14.9467 192.493 15.18 191.453 15.18ZM191.453 13.58C192.106 13.58 192.719 13.4267 193.293 13.12C193.866 12.8133 194.326 12.3533 194.673 11.74C195.033 11.1267 195.213 10.38 195.213 9.5C195.213 8.62 195.039 7.87333 194.693 7.26C194.346 6.64667 193.893 6.19333 193.333 5.9C192.773 5.59333 192.166 5.44 191.513 5.44C190.846 5.44 190.233 5.59333 189.673 5.9C189.126 6.19333 188.686 6.64667 188.353 7.26C188.019 7.87333 187.853 8.62 187.853 9.5C187.853 10.3933 188.013 11.1467 188.333 11.76C188.666 12.3733 189.106 12.8333 189.653 13.14C190.199 13.4333 190.799 13.58 191.453 13.58ZM201.286 5.82C201.606 5.19333 202.059 4.70667 202.646 4.36C203.246 4.01333 203.972 3.84 204.826 3.84V5.72H204.346C202.306 5.72 201.286 6.82667 201.286 9.04V15H199.466V4.04H201.286V5.82ZM213.047 15L208.747 10.16V15H206.927V0.2H208.747V8.9L212.967 4.04H215.507L210.347 9.5L215.527 15H213.047ZM219.1 12.48L216.86 17.86H215.64L217.1 12.48H219.1ZM237.477 15H235.657L228.337 3.9V15H226.517V1.04H228.337L235.657 12.12V1.04H237.477V15ZM250.339 1.06L245.799 9.74V15H243.979V9.74L239.419 1.06H241.439L244.879 8.12L248.319 1.06H250.339ZM256.811 2.2V0.539999H260.571V15H258.731V2.2H256.811ZM263.697 7.62C263.697 5.32667 264.07 3.54 264.817 2.26C265.564 0.966666 266.87 0.319999 268.737 0.319999C270.59 0.319999 271.89 0.966666 272.637 2.26C273.384 3.54 273.757 5.32667 273.757 7.62C273.757 9.95333 273.384 11.7667 272.637 13.06C271.89 14.3533 270.59 15 268.737 15C266.87 15 265.564 14.3533 264.817 13.06C264.07 11.7667 263.697 9.95333 263.697 7.62ZM271.957 7.62C271.957 6.46 271.877 5.48 271.717 4.68C271.57 3.86667 271.257 3.21333 270.777 2.72C270.31 2.22667 269.63 1.98 268.737 1.98C267.83 1.98 267.137 2.22667 266.657 2.72C266.19 3.21333 265.877 3.86667 265.717 4.68C265.57 5.48 265.497 6.46 265.497 7.62C265.497 8.82 265.57 9.82667 265.717 10.64C265.877 11.4533 266.19 12.1067 266.657 12.6C267.137 13.0933 267.83 13.34 268.737 13.34C269.63 13.34 270.31 13.0933 270.777 12.6C271.257 12.1067 271.57 11.4533 271.717 10.64C271.877 9.82667 271.957 8.82 271.957 7.62ZM276.216 4.18C276.309 2.95333 276.782 1.99333 277.636 1.3C278.489 0.606666 279.596 0.259999 280.956 0.259999C281.862 0.259999 282.642 0.426666 283.296 0.76C283.962 1.08 284.462 1.52 284.796 2.08C285.142 2.64 285.316 3.27333 285.316 3.98C285.316 4.80667 285.076 5.52 284.596 6.12C284.129 6.72 283.516 7.10667 282.756 7.28V7.38C283.622 7.59333 284.309 8.01333 284.816 8.64C285.322 9.26667 285.576 10.0867 285.576 11.1C285.576 11.86 285.402 12.5467 285.056 13.16C284.709 13.76 284.189 14.2333 283.496 14.58C282.802 14.9267 281.969 15.1 280.996 15.1C279.582 15.1 278.422 14.7333 277.516 14C276.609 13.2533 276.102 12.2 275.996 10.84H277.756C277.849 11.64 278.176 12.2933 278.736 12.8C279.296 13.3067 280.042 13.56 280.976 13.56C281.909 13.56 282.616 13.32 283.096 12.84C283.589 12.3467 283.836 11.7133 283.836 10.94C283.836 9.94 283.502 9.22 282.836 8.78C282.169 8.34 281.162 8.12 279.816 8.12H279.356V6.6H279.836C281.062 6.58667 281.989 6.38667 282.616 6C283.242 5.6 283.556 4.98667 283.556 4.16C283.556 3.45333 283.322 2.88667 282.856 2.46C282.402 2.03333 281.749 1.82 280.896 1.82C280.069 1.82 279.402 2.03333 278.896 2.46C278.389 2.88667 278.089 3.46 277.996 4.18H276.216ZM287.593 11.78V10.4L294.613 0.68H296.793V10.2H298.793V11.78H296.793V15H294.993V11.78H287.593ZM295.073 2.58L289.693 10.2H295.073V2.58ZM300.391 13.54C302.084 12.18 303.411 11.0667 304.371 10.2C305.331 9.32 306.138 8.40667 306.791 7.46C307.458 6.5 307.791 5.56 307.791 4.64C307.791 3.77333 307.578 3.09333 307.151 2.6C306.738 2.09333 306.064 1.84 305.131 1.84C304.224 1.84 303.518 2.12667 303.011 2.7C302.518 3.26 302.251 4.01333 302.211 4.96H300.451C300.504 3.46667 300.958 2.31333 301.811 1.5C302.664 0.686666 303.764 0.279999 305.111 0.279999C306.484 0.279999 307.571 0.659999 308.371 1.42C309.184 2.18 309.591 3.22667 309.591 4.56C309.591 5.66667 309.258 6.74667 308.591 7.8C307.938 8.84 307.191 9.76 306.351 10.56C305.511 11.3467 304.438 12.2667 303.131 13.32H310.011V14.84H300.391V13.54ZM314.295 12.48L312.055 17.86H310.835L312.295 12.48H314.295ZM332.672 15H330.852L323.532 3.9V15H321.712V1.04H323.532L330.852 12.12V1.04H332.672V15ZM345.534 1.06L340.994 9.74V15H339.174V9.74L334.614 1.06H336.634L340.074 8.12L343.514 1.06H345.534ZM346.774 8.02C346.774 6.66 347.081 5.44 347.694 4.36C348.307 3.26667 349.141 2.41333 350.194 1.8C351.261 1.18667 352.441 0.879999 353.734 0.879999C355.254 0.879999 356.581 1.24667 357.714 1.98C358.847 2.71333 359.674 3.75333 360.194 5.1H358.014C357.627 4.26 357.067 3.61333 356.334 3.16C355.614 2.70667 354.747 2.48 353.734 2.48C352.761 2.48 351.887 2.70667 351.114 3.16C350.341 3.61333 349.734 4.26 349.294 5.1C348.854 5.92667 348.634 6.9 348.634 8.02C348.634 9.12667 348.854 10.1 349.294 10.94C349.734 11.7667 350.341 12.4067 351.114 12.86C351.887 13.3133 352.761 13.54 353.734 13.54C354.747 13.54 355.614 13.32 356.334 12.88C357.067 12.4267 357.627 11.78 358.014 10.94H360.194C359.674 12.2733 358.847 13.3067 357.714 14.04C356.581 14.76 355.254 15.12 353.734 15.12C352.441 15.12 351.261 14.82 350.194 14.22C349.141 13.6067 348.307 12.76 347.694 11.68C347.081 10.6 346.774 9.38 346.774 8.02Z" fill="#5C5E87"/>
</svg>
