<svg width="80" height="18" viewBox="0 0 90 18" fill="none" xmlns="http://www.w3.org/2000/svg">
<path d="M10.868 13.876H4.466L3.366 17H0.748L6.226 1.688H9.13L14.608 17H11.968L10.868 13.876ZM10.164 11.83L7.678 4.724L5.17 11.83H10.164ZM16.1538 10.884C16.1538 9.66667 16.4032 8.58867 16.9018 7.65C17.4152 6.71133 18.1045 5.98533 18.9698 5.472C19.8498 4.944 20.8252 4.68 21.8958 4.68C22.6878 4.68 23.4652 4.856 24.2278 5.208C25.0052 5.54533 25.6212 6 26.0758 6.572V0.72H28.6058V17H26.0758V15.174C25.6652 15.7607 25.0932 16.2447 24.3598 16.626C23.6412 17.0073 22.8125 17.198 21.8738 17.198C20.8178 17.198 19.8498 16.934 18.9698 16.406C18.1045 15.8633 17.4152 15.1153 16.9018 14.162C16.4032 13.194 16.1538 12.1013 16.1538 10.884ZM26.0758 10.928C26.0758 10.092 25.8998 9.366 25.5478 8.75C25.2105 8.134 24.7632 7.66467 24.2058 7.342C23.6485 7.01933 23.0472 6.858 22.4018 6.858C21.7565 6.858 21.1552 7.01933 20.5978 7.342C20.0405 7.65 19.5858 8.112 19.2338 8.728C18.8965 9.32933 18.7278 10.048 18.7278 10.884C18.7278 11.72 18.8965 12.4533 19.2338 13.084C19.5858 13.7147 20.0405 14.1987 20.5978 14.536C21.1698 14.8587 21.7712 15.02 22.4018 15.02C23.0472 15.02 23.6485 14.8587 24.2058 14.536C24.7632 14.2133 25.2105 13.744 25.5478 13.128C25.8998 12.4973 26.0758 11.764 26.0758 10.928ZM31.064 10.884C31.064 9.66667 31.3133 8.58867 31.812 7.65C32.3253 6.71133 33.0147 5.98533 33.88 5.472C34.76 4.944 35.7353 4.68 36.806 4.68C37.598 4.68 38.3753 4.856 39.138 5.208C39.9153 5.54533 40.5313 6 40.986 6.572V0.72H43.516V17H40.986V15.174C40.5753 15.7607 40.0033 16.2447 39.27 16.626C38.5513 17.0073 37.7227 17.198 36.784 17.198C35.728 17.198 34.76 16.934 33.88 16.406C33.0147 15.8633 32.3253 15.1153 31.812 14.162C31.3133 13.194 31.064 12.1013 31.064 10.884ZM40.986 10.928C40.986 10.092 40.81 9.366 40.458 8.75C40.1207 8.134 39.6733 7.66467 39.116 7.342C38.5587 7.01933 37.9573 6.858 37.312 6.858C36.6667 6.858 36.0653 7.01933 35.508 7.342C34.9507 7.65 34.496 8.112 34.144 8.728C33.8067 9.32933 33.638 10.048 33.638 10.884C33.638 11.72 33.8067 12.4533 34.144 13.084C34.496 13.7147 34.9507 14.1987 35.508 14.536C36.08 14.8587 36.6813 15.02 37.312 15.02C37.9573 15.02 38.5587 14.8587 39.116 14.536C39.6733 14.2133 40.1207 13.744 40.458 13.128C40.81 12.4973 40.986 11.764 40.986 10.928ZM49.3182 6.638C49.6848 6.022 50.1688 5.54533 50.7702 5.208C51.3862 4.856 52.1122 4.68 52.9482 4.68V7.276H52.3102C51.3275 7.276 50.5795 7.52533 50.0662 8.024C49.5675 8.52267 49.3182 9.388 49.3182 10.62V17H46.8102V4.878H49.3182V6.638ZM66.3635 10.642C66.3635 11.0967 66.3342 11.5073 66.2755 11.874H57.0135C57.0868 12.842 57.4462 13.6193 58.0915 14.206C58.7368 14.7927 59.5288 15.086 60.4675 15.086C61.8168 15.086 62.7702 14.5213 63.3275 13.392H66.0335C65.6668 14.5067 64.9995 15.4233 64.0315 16.142C63.0782 16.846 61.8902 17.198 60.4675 17.198C59.3088 17.198 58.2675 16.9413 57.3435 16.428C56.4342 15.9 55.7155 15.1667 55.1875 14.228C54.6742 13.2747 54.4175 12.1747 54.4175 10.928C54.4175 9.68133 54.6668 8.58867 55.1655 7.65C55.6788 6.69667 56.3902 5.96333 57.2995 5.45C58.2235 4.93667 59.2795 4.68 60.4675 4.68C61.6115 4.68 62.6308 4.92933 63.5255 5.428C64.4202 5.92667 65.1168 6.63067 65.6155 7.54C66.1142 8.43467 66.3635 9.46867 66.3635 10.642ZM63.7455 9.85C63.7308 8.926 63.4008 8.18533 62.7555 7.628C62.1102 7.07067 61.3108 6.792 60.3575 6.792C59.4922 6.792 58.7515 7.07067 58.1355 7.628C57.5195 8.17067 57.1528 8.91133 57.0355 9.85H63.7455ZM73.2316 17.198C72.2783 17.198 71.4203 17.0293 70.6576 16.692C69.9096 16.34 69.3156 15.8707 68.8756 15.284C68.4356 14.6827 68.201 14.0153 68.1716 13.282H70.7676C70.8116 13.7953 71.0536 14.228 71.4936 14.58C71.9483 14.9173 72.513 15.086 73.1876 15.086C73.8916 15.086 74.4343 14.954 74.8156 14.69C75.2116 14.4113 75.4096 14.0593 75.4096 13.634C75.4096 13.1793 75.1896 12.842 74.7496 12.622C74.3243 12.402 73.6423 12.16 72.7036 11.896C71.7943 11.6467 71.0536 11.4047 70.4816 11.17C69.9096 10.9353 69.411 10.576 68.9856 10.092C68.575 9.608 68.3696 8.97 68.3696 8.178C68.3696 7.53267 68.5603 6.946 68.9416 6.418C69.323 5.87533 69.8656 5.45 70.5696 5.142C71.2883 4.834 72.1096 4.68 73.0336 4.68C74.4123 4.68 75.5196 5.032 76.3556 5.736C77.2063 6.42533 77.661 7.37133 77.7196 8.574H75.2116C75.1676 8.03133 74.9476 7.59867 74.5516 7.276C74.1556 6.95333 73.6203 6.792 72.9456 6.792C72.2856 6.792 71.7796 6.91667 71.4276 7.166C71.0756 7.41533 70.8996 7.74533 70.8996 8.156C70.8996 8.47867 71.017 8.75 71.2516 8.97C71.4863 9.19 71.7723 9.366 72.1096 9.498C72.447 9.61533 72.9456 9.76933 73.6056 9.96C74.4856 10.1947 75.2043 10.4367 75.7616 10.686C76.3336 10.9207 76.825 11.2727 77.2356 11.742C77.6463 12.2113 77.859 12.8347 77.8736 13.612C77.8736 14.3013 77.683 14.9173 77.3016 15.46C76.9203 16.0027 76.3776 16.428 75.6736 16.736C74.9843 17.044 74.1703 17.198 73.2316 17.198ZM84.9836 17.198C84.0303 17.198 83.1723 17.0293 82.4096 16.692C81.6616 16.34 81.0676 15.8707 80.6276 15.284C80.1876 14.6827 79.9529 14.0153 79.9236 13.282H82.5196C82.5636 13.7953 82.8056 14.228 83.2456 14.58C83.7003 14.9173 84.2649 15.086 84.9396 15.086C85.6436 15.086 86.1863 14.954 86.5676 14.69C86.9636 14.4113 87.1616 14.0593 87.1616 13.634C87.1616 13.1793 86.9416 12.842 86.5016 12.622C86.0763 12.402 85.3943 12.16 84.4556 11.896C83.5463 11.6467 82.8056 11.4047 82.2336 11.17C81.6616 10.9353 81.1629 10.576 80.7376 10.092C80.3269 9.608 80.1216 8.97 80.1216 8.178C80.1216 7.53267 80.3123 6.946 80.6936 6.418C81.0749 5.87533 81.6176 5.45 82.3216 5.142C83.0403 4.834 83.8616 4.68 84.7856 4.68C86.1643 4.68 87.2716 5.032 88.1076 5.736C88.9583 6.42533 89.4129 7.37133 89.4716 8.574H86.9636C86.9196 8.03133 86.6996 7.59867 86.3036 7.276C85.9076 6.95333 85.3723 6.792 84.6976 6.792C84.0376 6.792 83.5316 6.91667 83.1796 7.166C82.8276 7.41533 82.6516 7.74533 82.6516 8.156C82.6516 8.47867 82.7689 8.75 83.0036 8.97C83.2383 9.19 83.5243 9.366 83.8616 9.498C84.1989 9.61533 84.6976 9.76933 85.3576 9.96C86.2376 10.1947 86.9563 10.4367 87.5136 10.686C88.0856 10.9207 88.5769 11.2727 88.9876 11.742C89.3983 12.2113 89.6109 12.8347 89.6256 13.612C89.6256 14.3013 89.4349 14.9173 89.0536 15.46C88.6723 16.0027 88.1296 16.428 87.4256 16.736C86.7363 17.044 85.9223 17.198 84.9836 17.198Z" fill="#2B3377"/>
</svg>
