<svg width="500" height="112" viewBox="0 0 680 112" fill="none" xmlns="http://www.w3.org/2000/svg">
<g filter="url(#filter0_d_4620_220)">
<rect x="20" y="10" width="640" height="72" rx="20" fill="white"/>
</g>
<rect x="470" y="17" width="180" height="58" rx="20" fill="#686DF1"/>
<path d="M537.34 53.18C536.233 53.18 535.22 53.04 534.3 52.76C533.38 52.4667 532.6 52.06 531.96 51.54L532.62 49.9C533.287 50.4067 534 50.7867 534.76 51.04C535.52 51.2933 536.38 51.42 537.34 51.42C538.473 51.42 539.307 51.22 539.84 50.82C540.387 50.4067 540.66 49.8733 540.66 49.22C540.66 48.6867 540.467 48.2667 540.08 47.96C539.693 47.64 539.047 47.3867 538.14 47.2L536 46.76C534.733 46.4933 533.787 46.0533 533.16 45.44C532.547 44.8267 532.24 44 532.24 42.96C532.24 42.12 532.46 41.38 532.9 40.74C533.353 40.1 533.98 39.6067 534.78 39.26C535.58 38.9 536.5 38.72 537.54 38.72C538.5 38.72 539.387 38.8667 540.2 39.16C541.027 39.44 541.727 39.8533 542.3 40.4L541.62 41.98C540.487 40.98 539.12 40.48 537.52 40.48C536.533 40.48 535.747 40.7 535.16 41.14C534.587 41.58 534.3 42.1667 534.3 42.9C534.3 43.46 534.48 43.9067 534.84 44.24C535.2 44.5733 535.8 44.8267 536.64 45L538.76 45.44C540.093 45.72 541.087 46.1533 541.74 46.74C542.393 47.3133 542.72 48.0933 542.72 49.08C542.72 49.9067 542.5 50.6267 542.06 51.24C541.62 51.8533 541 52.3333 540.2 52.68C539.4 53.0133 538.447 53.18 537.34 53.18ZM548.341 53.18C545.981 53.18 544.801 51.8667 544.801 49.24V43.24H546.821V49.26C546.821 50.0467 546.981 50.6267 547.301 51C547.621 51.3733 548.128 51.56 548.821 51.56C549.581 51.56 550.195 51.3067 550.661 50.8C551.141 50.2933 551.381 49.6133 551.381 48.76V43.24H553.401V53H551.441V51.44C551.121 52.0133 550.695 52.4467 550.161 52.74C549.628 53.0333 549.021 53.18 548.341 53.18ZM561.488 53.18C560.741 53.18 560.081 53.0133 559.508 52.68C558.935 52.3467 558.508 51.9 558.228 51.34V53H556.248V38.9H558.268V44.82C558.561 44.2867 558.988 43.86 559.548 43.54C560.121 43.22 560.768 43.06 561.488 43.06C562.355 43.06 563.108 43.2667 563.748 43.68C564.401 44.0933 564.901 44.68 565.248 45.44C565.608 46.1867 565.788 47.08 565.788 48.12C565.788 49.16 565.608 50.06 565.248 50.82C564.901 51.58 564.401 52.1667 563.748 52.58C563.108 52.98 562.355 53.18 561.488 53.18ZM560.988 51.62C561.828 51.62 562.495 51.32 562.988 50.72C563.495 50.12 563.748 49.2533 563.748 48.12C563.748 46.9867 563.495 46.1267 562.988 45.54C562.495 44.94 561.828 44.64 560.988 44.64C560.148 44.64 559.475 44.94 558.968 45.54C558.475 46.1267 558.228 46.9867 558.228 48.12C558.228 49.2533 558.475 50.12 558.968 50.72C559.475 51.32 560.148 51.62 560.988 51.62ZM571.485 53.18C570.685 53.18 569.938 53.08 569.245 52.88C568.551 52.6667 567.971 52.3733 567.505 52L568.085 50.64C568.578 50.9867 569.118 51.2533 569.705 51.44C570.305 51.6267 570.905 51.72 571.505 51.72C572.211 51.72 572.745 51.5933 573.105 51.34C573.465 51.0867 573.645 50.7467 573.645 50.32C573.645 49.9733 573.525 49.7067 573.285 49.52C573.045 49.32 572.685 49.1667 572.205 49.06L570.305 48.68C568.625 48.3333 567.785 47.4667 567.785 46.08C567.785 45.16 568.151 44.4267 568.885 43.88C569.618 43.3333 570.578 43.06 571.765 43.06C572.445 43.06 573.091 43.16 573.705 43.36C574.331 43.56 574.851 43.86 575.265 44.26L574.685 45.62C574.285 45.2733 573.825 45.0067 573.305 44.82C572.785 44.6333 572.271 44.54 571.765 44.54C571.071 44.54 570.545 44.6733 570.185 44.94C569.825 45.1933 569.645 45.54 569.645 45.98C569.645 46.6467 570.085 47.0733 570.965 47.26L572.865 47.64C573.731 47.8133 574.385 48.1067 574.825 48.52C575.278 48.9333 575.505 49.4933 575.505 50.2C575.505 51.1333 575.138 51.8667 574.405 52.4C573.671 52.92 572.698 53.18 571.485 53.18ZM582.052 53.18C581.052 53.18 580.185 52.9733 579.452 52.56C578.732 52.1333 578.172 51.54 577.772 50.78C577.372 50.0067 577.172 49.1 577.172 48.06C577.172 46.5133 577.612 45.2933 578.492 44.4C579.372 43.5067 580.559 43.06 582.052 43.06C582.665 43.06 583.272 43.1667 583.872 43.38C584.472 43.5933 584.965 43.8867 585.352 44.26L584.712 45.68C584.339 45.3333 583.925 45.08 583.472 44.92C583.032 44.7467 582.612 44.66 582.212 44.66C581.265 44.66 580.532 44.96 580.012 45.56C579.505 46.1467 579.252 46.9867 579.252 48.08C579.252 49.1733 579.505 50.0333 580.012 50.66C580.532 51.2733 581.265 51.58 582.212 51.58C582.612 51.58 583.032 51.5 583.472 51.34C583.925 51.1667 584.339 50.9067 584.712 50.56L585.352 52C584.965 52.36 584.465 52.6467 583.852 52.86C583.252 53.0733 582.652 53.18 582.052 53.18ZM587.088 53V43.24H589.048V44.98C589.555 43.82 590.608 43.1733 592.208 43.04L592.868 43L593.008 44.72L591.788 44.84C590.015 45.0133 589.128 45.9267 589.128 47.58V53H587.088ZM594.369 40.98V38.88H596.729V40.98H594.369ZM594.549 53V43.24H596.569V53H594.549ZM604.652 53.18C603.906 53.18 603.246 53.0133 602.672 52.68C602.099 52.3467 601.672 51.9 601.392 51.34V53H599.412V38.9H601.432V44.82C601.726 44.2867 602.152 43.86 602.712 43.54C603.286 43.22 603.932 43.06 604.652 43.06C605.519 43.06 606.272 43.2667 606.912 43.68C607.566 44.0933 608.066 44.68 608.412 45.44C608.772 46.1867 608.952 47.08 608.952 48.12C608.952 49.16 608.772 50.06 608.412 50.82C608.066 51.58 607.566 52.1667 606.912 52.58C606.272 52.98 605.519 53.18 604.652 53.18ZM604.152 51.62C604.992 51.62 605.659 51.32 606.152 50.72C606.659 50.12 606.912 49.2533 606.912 48.12C606.912 46.9867 606.659 46.1267 606.152 45.54C605.659 44.94 604.992 44.64 604.152 44.64C603.312 44.64 602.639 44.94 602.132 45.54C601.639 46.1267 601.392 46.9867 601.392 48.12C601.392 49.2533 601.639 50.12 602.132 50.72C602.639 51.32 603.312 51.62 604.152 51.62ZM615.809 53.18C614.209 53.18 612.949 52.7333 612.029 51.84C611.109 50.9333 610.649 49.7 610.649 48.14C610.649 47.14 610.849 46.26 611.249 45.5C611.662 44.7267 612.229 44.1267 612.949 43.7C613.669 43.2733 614.495 43.06 615.429 43.06C616.775 43.06 617.835 43.4933 618.609 44.36C619.382 45.2133 619.769 46.3933 619.769 47.9V48.58H612.609C612.755 50.6067 613.829 51.62 615.829 51.62C616.389 51.62 616.935 51.5333 617.469 51.36C618.015 51.1867 618.529 50.9 619.009 50.5L619.609 51.9C619.169 52.3 618.602 52.6133 617.909 52.84C617.215 53.0667 616.515 53.18 615.809 53.18ZM615.509 44.48C614.669 44.48 614.002 44.74 613.509 45.26C613.015 45.78 612.715 46.4733 612.609 47.34H618.069C618.029 46.4333 617.789 45.7333 617.349 45.24C616.909 44.7333 616.295 44.48 615.509 44.48Z" fill="white"/>
<path d="M100.387 53V46.32L94.9869 38.9H96.9069L101.247 44.88L105.567 38.9H107.427L102.027 46.36V53H100.387ZM111.539 53.18C110.592 53.18 109.772 52.9733 109.079 52.56C108.386 52.1467 107.846 51.5667 107.459 50.82C107.086 50.06 106.899 49.1667 106.899 48.14C106.899 47.1133 107.086 46.2267 107.459 45.48C107.846 44.72 108.386 44.1333 109.079 43.72C109.772 43.3067 110.592 43.1 111.539 43.1C112.472 43.1 113.286 43.3067 113.979 43.72C114.686 44.1333 115.226 44.72 115.599 45.48C115.986 46.2267 116.179 47.1133 116.179 48.14C116.179 49.1667 115.986 50.06 115.599 50.82C115.226 51.5667 114.686 52.1467 113.979 52.56C113.286 52.9733 112.472 53.18 111.539 53.18ZM111.539 51.88C112.446 51.88 113.172 51.56 113.719 50.92C114.266 50.2667 114.539 49.34 114.539 48.14C114.539 46.9267 114.266 46 113.719 45.36C113.172 44.72 112.446 44.4 111.539 44.4C110.619 44.4 109.886 44.72 109.339 45.36C108.806 46 108.539 46.9267 108.539 48.14C108.539 49.34 108.806 50.2667 109.339 50.92C109.886 51.56 110.619 51.88 111.539 51.88ZM122.452 53.18C120.119 53.18 118.952 51.8933 118.952 49.32V43.28H120.572V49.3C120.572 50.1667 120.746 50.8067 121.092 51.22C121.452 51.6333 122.012 51.84 122.772 51.84C123.599 51.84 124.272 51.5667 124.792 51.02C125.312 50.46 125.572 49.72 125.572 48.8V43.28H127.192V53H125.612V51.36C125.306 51.9467 124.872 52.4 124.312 52.72C123.766 53.0267 123.146 53.18 122.452 53.18ZM130.623 53V43.28H132.203V45.02C132.723 43.8467 133.79 43.2 135.403 43.08L135.983 43.02L136.103 44.42L135.083 44.54C134.163 44.62 133.463 44.9133 132.983 45.42C132.503 45.9133 132.263 46.5933 132.263 47.46V53H130.623ZM148.108 53.18C146.574 53.18 145.361 52.7333 144.468 51.84C143.574 50.9333 143.128 49.7067 143.128 48.16C143.128 47.16 143.328 46.28 143.728 45.52C144.128 44.7467 144.674 44.1533 145.368 43.74C146.074 43.3133 146.888 43.1 147.808 43.1C149.128 43.1 150.161 43.5267 150.908 44.38C151.654 45.22 152.028 46.38 152.028 47.86V48.48H144.708C144.761 49.5867 145.081 50.4333 145.668 51.02C146.254 51.5933 147.068 51.88 148.108 51.88C148.694 51.88 149.254 51.7933 149.788 51.62C150.321 51.4333 150.828 51.1333 151.308 50.72L151.868 51.86C151.428 52.2733 150.868 52.6 150.188 52.84C149.508 53.0667 148.814 53.18 148.108 53.18ZM147.848 44.3C146.928 44.3 146.201 44.5867 145.668 45.16C145.134 45.7333 144.821 46.4867 144.728 47.42H150.628C150.588 46.4333 150.328 45.6667 149.848 45.12C149.381 44.5733 148.714 44.3 147.848 44.3ZM154.812 53V43.28H156.392V44.92C156.686 44.3333 157.092 43.8867 157.612 43.58C158.132 43.26 158.739 43.1 159.432 43.1C160.952 43.1 161.926 43.76 162.352 45.08C162.646 44.4667 163.079 43.9867 163.652 43.64C164.226 43.28 164.886 43.1 165.632 43.1C167.792 43.1 168.872 44.38 168.872 46.94V53H167.252V47.02C167.252 46.1267 167.092 45.4733 166.772 45.06C166.466 44.6333 165.952 44.42 165.232 44.42C164.446 44.42 163.819 44.7 163.352 45.26C162.886 45.82 162.652 46.5667 162.652 47.5V53H161.032V47.02C161.032 46.1267 160.872 45.4733 160.552 45.06C160.246 44.6333 159.732 44.42 159.012 44.42C158.212 44.42 157.579 44.7 157.112 45.26C156.659 45.82 156.432 46.5667 156.432 47.5V53H154.812ZM175.361 53.18C174.695 53.18 174.095 53.0533 173.561 52.8C173.041 52.5333 172.628 52.1733 172.321 51.72C172.015 51.2667 171.861 50.76 171.861 50.2C171.861 49.4933 172.041 48.9333 172.401 48.52C172.775 48.1067 173.381 47.8133 174.221 47.64C175.075 47.4533 176.235 47.36 177.701 47.36H178.341V46.74C178.341 45.9133 178.168 45.32 177.821 44.96C177.488 44.5867 176.948 44.4 176.201 44.4C175.615 44.4 175.048 44.4867 174.501 44.66C173.955 44.82 173.395 45.0867 172.821 45.46L172.261 44.28C172.768 43.92 173.381 43.6333 174.101 43.42C174.835 43.2067 175.535 43.1 176.201 43.1C177.455 43.1 178.381 43.4067 178.981 44.02C179.595 44.6333 179.901 45.5867 179.901 46.88V53H178.381V51.32C178.128 51.8933 177.735 52.3467 177.201 52.68C176.681 53.0133 176.068 53.18 175.361 53.18ZM175.621 51.96C176.421 51.96 177.075 51.6867 177.581 51.14C178.088 50.58 178.341 49.8733 178.341 49.02V48.42H177.721C176.641 48.42 175.788 48.4733 175.161 48.58C174.548 48.6733 174.115 48.8467 173.861 49.1C173.621 49.34 173.501 49.6733 173.501 50.1C173.501 50.6467 173.688 51.0933 174.061 51.44C174.448 51.7867 174.968 51.96 175.621 51.96ZM183.107 40.86V39.04H185.107V40.86H183.107ZM183.307 53V43.28H184.927V53H183.307ZM191.335 53.18C190.348 53.18 189.602 52.8933 189.095 52.32C188.602 51.7333 188.355 50.8867 188.355 49.78V38.9H189.975V49.66C189.975 51.0867 190.542 51.8 191.675 51.8C192.008 51.8 192.308 51.76 192.575 51.68L192.535 53.04C192.122 53.1333 191.722 53.18 191.335 53.18Z" fill="#9092B0"/>
<g clip-path="url(#clip0_4620_220)">
<path d="M62.9089 46.123L70.9999 51.238V40.792L62.9089 46.123Z" fill="#9092B0"/>
<path d="M47 40.792V51.238L55.091 46.123L47 40.792Z" fill="#9092B0"/>
<path d="M69.4999 37.75H48.4999C47.7514 37.75 47.1574 38.308 47.0449 39.0265L58.9999 46.903L70.9549 39.0265C70.8424 38.308 70.2484 37.75 69.4999 37.75Z" fill="#9092B0"/>
<path d="M61.5351 47.0288L59.4126 48.4268C59.2866 48.5093 59.1441 48.5498 59.0001 48.5498C58.8561 48.5498 58.7136 48.5093 58.5876 48.4268L56.4651 47.0273L47.0481 52.9838C47.1636 53.6963 47.7546 54.2498 48.5001 54.2498H69.5001C70.2456 54.2498 70.8366 53.6963 70.9521 52.9838L61.5351 47.0288Z" fill="#9092B0"/>
</g>
<g clip-path="url(#clip1_4620_220)">
<path d="M509.241 36.807L493.819 44.3327C493.169 44.6497 492.761 45.2958 492.754 46.0187C492.747 46.7416 493.142 47.3956 493.785 47.7254L498.866 50.3305L503.439 45.1535C503.649 44.9152 504.013 44.8927 504.251 45.1031C504.489 45.3135 504.512 45.6773 504.301 45.9155L499.729 51.0925L502.941 55.8123C503.348 56.41 504.046 56.7214 504.762 56.6249C505.48 56.5283 506.07 56.0426 506.304 55.3599L511.867 39.1267C512.121 38.3877 511.914 37.6072 511.329 37.09C510.743 36.5728 509.943 36.4643 509.241 36.807Z" fill="white"/>
</g>
<defs>
<filter id="filter0_d_4620_220" x="0" y="0" width="680" height="112" filterUnits="userSpaceOnUse" color-interpolation-filters="sRGB">
<feFlood flood-opacity="0" result="BackgroundImageFix"/>
<feColorMatrix in="SourceAlpha" type="matrix" values="0 0 0 0 0 0 0 0 0 0 0 0 0 0 0 0 0 0 127 0" result="hardAlpha"/>
<feOffset dy="10"/>
<feGaussianBlur stdDeviation="10"/>
<feColorMatrix type="matrix" values="0 0 0 0 0.21266 0 0 0 0 0.228796 0 0 0 0 0.470833 0 0 0 0.1 0"/>
<feBlend mode="normal" in2="BackgroundImageFix" result="effect1_dropShadow_4620_220"/>
<feBlend mode="normal" in="SourceGraphic" in2="effect1_dropShadow_4620_220" result="shape"/>
</filter>
<clipPath id="clip0_4620_220">
<rect width="24" height="24" fill="white" transform="translate(47 34)"/>
</clipPath>
<clipPath id="clip1_4620_220">
<rect width="19.6445" height="19.6445" fill="white" transform="translate(490.962 45.3105) rotate(-48.5475)"/>
</clipPath>
</defs>
</svg>
