<svg width="30" height="42" viewBox="0 0 42 42" fill="none" xmlns="http://www.w3.org/2000/svg">
<path d="M21.0094 41.9441C32.5919 41.9441 41.9814 32.5546 41.9814 20.972C41.9814 9.38949 32.5919 0 21.0094 0C9.42686 0 0.0373535 9.38949 0.0373535 20.972C0.0373535 32.5546 9.42686 41.9441 21.0094 41.9441Z" fill="#373C59"/>
<path d="M32.5921 13.776C31.835 14.1023 31.0375 14.3256 30.221 14.4399C30.6004 14.4399 31.1458 13.7049 31.4066 13.4322C31.7494 13.0187 32.0109 12.544 32.1772 12.0333C32.1772 12.0333 32.1772 11.9384 32.1772 11.9147C32.1574 11.9033 32.1348 11.8973 32.1119 11.8973C32.089 11.8973 32.0666 11.9033 32.0467 11.9147C31.18 12.3733 30.2603 12.7237 29.3082 12.958C29.2798 12.9759 29.2469 12.9854 29.2134 12.9854C29.1798 12.9854 29.1469 12.9759 29.1185 12.958C29.0456 12.8694 28.9663 12.7862 28.8814 12.709C28.4873 12.3675 28.0384 12.095 27.5536 11.9029C26.909 11.6349 26.2108 11.5213 25.5145 11.5709C24.839 11.6202 24.1805 11.8064 23.5793 12.1182C22.978 12.43 22.4466 12.861 22.0172 13.3848C21.5736 13.9327 21.2576 14.5726 21.0924 15.2579C20.9621 15.9075 20.9621 16.5764 21.0924 17.2259C21.0924 17.3326 21.0924 17.3445 20.9976 17.3326C17.377 16.9737 14.0186 15.2839 11.5727 12.5905C11.466 12.4601 11.4067 12.4601 11.3237 12.5905C10.8253 13.4926 10.6343 14.5326 10.7798 15.553C10.9252 16.5733 11.3992 17.5185 12.1298 18.2455L12.7107 18.7553C12.0796 18.6998 11.4645 18.5269 10.8969 18.2455C10.7784 18.1743 10.7309 18.2455 10.7191 18.3403C10.7016 18.5177 10.7016 18.6964 10.7191 18.8738C10.8312 19.7231 11.1669 20.5273 11.6918 21.2042C12.2168 21.8812 12.9121 22.4066 13.7066 22.7268C13.8995 22.8148 14.1026 22.8785 14.3112 22.9165C13.7182 23.0097 13.1142 23.0097 12.5211 22.9165C12.3907 22.9165 12.3433 22.9165 12.3907 23.0824C12.6952 23.8822 13.1993 24.5908 13.855 25.1407C14.5108 25.6907 15.2963 26.0636 16.1369 26.2241C16.3084 26.2355 16.4787 26.2592 16.6467 26.2952C15.9192 26.9548 15.0393 27.4232 14.086 27.6586C12.8405 28.1013 11.5143 28.2711 10.1974 28.1565C9.98402 28.1565 9.94844 28.1565 9.88917 28.1565C9.82989 28.1565 9.88922 28.2395 9.9485 28.2988C10.2093 28.4648 10.482 28.6189 10.7547 28.773C11.5798 29.2137 12.4503 29.5635 13.351 29.8163C15.6623 30.5062 18.1136 30.5815 20.4629 30.0347C22.8122 29.488 24.9783 28.338 26.7474 26.6983C28.0199 25.3165 29.0036 23.6945 29.6408 21.9274C30.278 20.1603 30.5559 18.2838 30.4582 16.4079C30.4582 16.2656 30.636 16.1826 30.7427 16.0997C31.4387 15.5578 32.0535 14.919 32.5684 14.2028C32.6478 14.097 32.6896 13.9676 32.687 13.8353C32.687 13.8353 32.6869 13.7405 32.5921 13.776Z" fill="white"/>
</svg>
