<svg width="90" height="80" viewBox="0 0 435 315" fill="none" xmlns="http://www.w3.org/2000/svg">
<rect x="177" width="102" height="50" rx="20" fill="#FD9B79"/>
<path d="M244.177 47.4771C244.177 57.7181 236.043 65.9543 226.089 65.9543C216.135 65.9543 208 57.7181 208 47.4771C208 37.2362 216.135 29 226.089 29C236.043 29 244.177 37.2362 244.177 47.4771Z" stroke="white" stroke-width="4"/>
<rect x="217.15" y="47.6973" width="4.68735" height="9.556" rx="2" fill="white"/>
<rect x="223.846" y="42.2366" width="4.68735" height="15.0166" rx="2" fill="white"/>
<rect x="230.543" y="37.4585" width="4.68735" height="19.7946" rx="2" fill="white"/>
<line x1="2" y1="-2" x2="14.9032" y2="-2" transform="matrix(0.700303 0.713846 -0.700303 0.713846 237.239 62.7139)" stroke="white" stroke-width="4" stroke-linecap="round"/>
<path d="M142.173 158.08H144.597V175H141.861V163.816L137.397 172.264H135.333L130.845 163.936L130.869 175H128.133V158.08H130.581L136.389 169.144L142.173 158.08ZM153.521 162.976C155.169 162.976 156.393 163.376 157.193 164.176C157.993 164.976 158.393 166.208 158.393 167.872V175H155.537V173.2C155.265 173.824 154.833 174.312 154.241 174.664C153.665 175.016 152.993 175.192 152.225 175.192C151.441 175.192 150.729 175.032 150.089 174.712C149.449 174.392 148.945 173.952 148.577 173.392C148.209 172.832 148.025 172.208 148.025 171.52C148.025 170.656 148.241 169.976 148.673 169.48C149.121 168.984 149.841 168.624 150.833 168.4C151.825 168.176 153.193 168.064 154.937 168.064H155.537V167.512C155.537 166.712 155.361 166.136 155.009 165.784C154.673 165.432 154.105 165.256 153.305 165.256C152.681 165.256 152.025 165.368 151.337 165.592C150.665 165.8 150.001 166.096 149.345 166.48L148.505 164.416C149.161 164 149.953 163.656 150.881 163.384C151.809 163.112 152.689 162.976 153.521 162.976ZM152.825 173.032C153.625 173.032 154.273 172.768 154.769 172.24C155.281 171.696 155.537 171 155.537 170.152V169.648H155.105C154.033 169.648 153.201 169.696 152.609 169.792C152.017 169.888 151.593 170.056 151.337 170.296C151.081 170.536 150.953 170.864 150.953 171.28C150.953 171.792 151.129 172.216 151.481 172.552C151.833 172.872 152.281 173.032 152.825 173.032ZM169.65 165.472L167.898 165.64C165.914 165.848 164.922 166.856 164.922 168.664V175H161.922V163.264H164.778V165.328C165.386 163.92 166.642 163.152 168.546 163.024L169.458 162.952L169.65 165.472ZM183.349 175H179.629L174.589 169.648V175H171.589V158.08H174.589V168.4L179.317 163.288H182.965L177.685 168.904L183.349 175ZM195.068 169.672H187.076C187.172 170.76 187.5 171.568 188.06 172.096C188.62 172.624 189.42 172.888 190.46 172.888C191.756 172.888 192.94 172.472 194.012 171.64L194.876 173.704C194.332 174.152 193.644 174.512 192.812 174.784C191.996 175.056 191.172 175.192 190.34 175.192C188.42 175.192 186.9 174.648 185.78 173.56C184.676 172.472 184.124 170.984 184.124 169.096C184.124 167.896 184.364 166.832 184.844 165.904C185.324 164.976 185.996 164.256 186.86 163.744C187.74 163.232 188.732 162.976 189.836 162.976C191.452 162.976 192.724 163.496 193.652 164.536C194.596 165.576 195.068 167.008 195.068 168.832V169.672ZM189.908 165.088C189.108 165.088 188.46 165.344 187.964 165.856C187.484 166.368 187.188 167.104 187.076 168.064H192.5C192.468 167.088 192.228 166.352 191.78 165.856C191.332 165.344 190.708 165.088 189.908 165.088ZM203.838 172.936C204.19 172.936 204.558 172.912 204.942 172.864L204.798 175.096C204.318 175.144 203.878 175.168 203.478 175.168C201.83 175.168 200.614 174.792 199.83 174.04C199.046 173.272 198.654 172.136 198.654 170.632V165.52H196.398V163.264H198.654V159.76H201.654V163.264H204.75V165.52H201.654V170.584C201.654 172.152 202.382 172.936 203.838 172.936ZM227.373 175L225.669 171.04H217.437L215.733 175H212.613L220.269 158.08H222.789L230.445 175H227.373ZM218.445 168.64H224.637L221.541 161.44L218.445 168.64ZM239.282 162.976C240.69 162.976 241.738 163.376 242.426 164.176C243.114 164.976 243.458 166.184 243.458 167.8V175H240.458V167.968C240.458 167.056 240.282 166.392 239.93 165.976C239.594 165.56 239.058 165.352 238.322 165.352C237.458 165.352 236.762 165.624 236.234 166.168C235.722 166.712 235.466 167.44 235.466 168.352V175H232.466V163.264H235.394V165.016C235.794 164.36 236.33 163.856 237.002 163.504C237.674 163.152 238.434 162.976 239.282 162.976ZM252.025 162.976C253.673 162.976 254.897 163.376 255.697 164.176C256.497 164.976 256.897 166.208 256.897 167.872V175H254.041V173.2C253.769 173.824 253.337 174.312 252.745 174.664C252.169 175.016 251.497 175.192 250.729 175.192C249.945 175.192 249.233 175.032 248.593 174.712C247.953 174.392 247.449 173.952 247.081 173.392C246.713 172.832 246.529 172.208 246.529 171.52C246.529 170.656 246.745 169.976 247.177 169.48C247.625 168.984 248.345 168.624 249.337 168.4C250.329 168.176 251.697 168.064 253.441 168.064H254.041V167.512C254.041 166.712 253.865 166.136 253.513 165.784C253.177 165.432 252.609 165.256 251.809 165.256C251.185 165.256 250.529 165.368 249.841 165.592C249.169 165.8 248.505 166.096 247.849 166.48L247.009 164.416C247.665 164 248.457 163.656 249.385 163.384C250.313 163.112 251.193 162.976 252.025 162.976ZM251.329 173.032C252.129 173.032 252.777 172.768 253.273 172.24C253.785 171.696 254.041 171 254.041 170.152V169.648H253.609C252.537 169.648 251.705 169.696 251.113 169.792C250.521 169.888 250.097 170.056 249.841 170.296C249.585 170.536 249.457 170.864 249.457 171.28C249.457 171.792 249.633 172.216 249.985 172.552C250.337 172.872 250.785 173.032 251.329 173.032ZM260.426 175V158.08H263.426V175H260.426ZM275.232 163.288H278.184L271.128 179.32H268.104L270.24 174.544L265.344 163.288H268.512L271.824 171.568L275.232 163.288ZM284.268 175.192C283.228 175.192 282.268 175.064 281.388 174.808C280.524 174.552 279.788 174.184 279.18 173.704L280.02 171.616C281.268 172.528 282.7 172.984 284.316 172.984C285.004 172.984 285.524 172.872 285.876 172.648C286.244 172.424 286.428 172.104 286.428 171.688C286.428 171.336 286.3 171.064 286.044 170.872C285.804 170.68 285.364 170.504 284.724 170.344L282.804 169.912C281.716 169.672 280.908 169.28 280.38 168.736C279.852 168.192 279.588 167.488 279.588 166.624C279.588 165.904 279.788 165.272 280.188 164.728C280.604 164.168 281.172 163.736 281.892 163.432C282.628 163.128 283.476 162.976 284.436 162.976C285.268 162.976 286.068 163.104 286.836 163.36C287.62 163.616 288.308 163.976 288.9 164.44L288.06 166.48C286.844 165.6 285.628 165.16 284.412 165.16C283.756 165.16 283.244 165.28 282.876 165.52C282.508 165.76 282.324 166.096 282.324 166.528C282.324 166.848 282.436 167.112 282.66 167.32C282.9 167.528 283.276 167.688 283.788 167.8L285.78 168.256C286.948 168.512 287.804 168.92 288.348 169.48C288.892 170.024 289.164 170.744 289.164 171.64C289.164 172.728 288.724 173.592 287.844 174.232C286.964 174.872 285.772 175.192 284.268 175.192ZM292.077 175V163.264H295.077V175H292.077ZM291.909 157.816H295.221V160.768H291.909V157.816ZM302.97 175.192C301.93 175.192 300.97 175.064 300.09 174.808C299.226 174.552 298.49 174.184 297.882 173.704L298.722 171.616C299.97 172.528 301.402 172.984 303.018 172.984C303.706 172.984 304.226 172.872 304.578 172.648C304.946 172.424 305.13 172.104 305.13 171.688C305.13 171.336 305.002 171.064 304.746 170.872C304.506 170.68 304.066 170.504 303.426 170.344L301.506 169.912C300.418 169.672 299.61 169.28 299.082 168.736C298.554 168.192 298.29 167.488 298.29 166.624C298.29 165.904 298.49 165.272 298.89 164.728C299.306 164.168 299.874 163.736 300.594 163.432C301.33 163.128 302.178 162.976 303.138 162.976C303.97 162.976 304.77 163.104 305.538 163.36C306.322 163.616 307.01 163.976 307.602 164.44L306.762 166.48C305.546 165.6 304.33 165.16 303.114 165.16C302.458 165.16 301.946 165.28 301.578 165.52C301.21 165.76 301.026 166.096 301.026 166.528C301.026 166.848 301.138 167.112 301.362 167.32C301.602 167.528 301.978 167.688 302.49 167.8L304.482 168.256C305.65 168.512 306.506 168.92 307.05 169.48C307.594 170.024 307.866 170.744 307.866 171.64C307.866 172.728 307.426 173.592 306.546 174.232C305.666 174.872 304.474 175.192 302.97 175.192Z" fill="#2B3377"/>
<path d="M50.843 237L49.283 233.38H41.923L40.363 237H38.683L44.883 222.9H46.303L52.503 237H50.843ZM42.503 232.02H48.703L45.603 224.8L42.503 232.02ZM71.1505 227.02C73.3105 227.02 74.3905 228.307 74.3905 230.88V237H72.7705V230.96C72.7705 230.067 72.6105 229.413 72.2905 229C71.9839 228.587 71.4839 228.38 70.7905 228.38C69.9772 228.38 69.3372 228.653 68.8705 229.2C68.4039 229.747 68.1705 230.493 68.1705 231.44V237H66.5505V230.96C66.5505 230.053 66.3905 229.4 66.0705 229C65.7505 228.587 65.2439 228.38 64.5505 228.38C63.7372 228.38 63.0972 228.653 62.6305 229.2C62.1639 229.747 61.9305 230.493 61.9305 231.44V237H60.3105V227.26H61.9105V228.8C62.2039 228.227 62.6105 227.787 63.1305 227.48C63.6505 227.173 64.2505 227.02 64.9305 227.02C66.4372 227.02 67.4305 227.66 67.9105 228.94C68.1905 228.34 68.6172 227.873 69.1905 227.54C69.7639 227.193 70.4172 227.02 71.1505 227.02ZM81.7018 227.02C82.9418 227.02 83.8618 227.34 84.4618 227.98C85.0751 228.607 85.3818 229.567 85.3818 230.86V237H83.8018V235.34C83.5485 235.913 83.1618 236.36 82.6418 236.68C82.1218 236.987 81.5218 237.14 80.8418 237.14C80.2151 237.14 79.6351 237.013 79.1018 236.76C78.5818 236.507 78.1685 236.153 77.8618 235.7C77.5551 235.247 77.4018 234.747 77.4018 234.2C77.4018 233.467 77.5885 232.9 77.9618 232.5C78.3351 232.087 78.9485 231.793 79.8018 231.62C80.6551 231.433 81.8418 231.34 83.3618 231.34H83.8018V230.68C83.8018 229.867 83.6351 229.28 83.3018 228.92C82.9685 228.547 82.4285 228.36 81.6818 228.36C80.5618 228.36 79.4485 228.707 78.3418 229.4L77.8018 228.22C78.3085 227.86 78.9151 227.573 79.6218 227.36C80.3418 227.133 81.0351 227.02 81.7018 227.02ZM81.0618 235.86C81.8618 235.86 82.5151 235.593 83.0218 235.06C83.5418 234.513 83.8018 233.813 83.8018 232.96V232.38H83.4418C82.2685 232.38 81.3751 232.433 80.7618 232.54C80.1485 232.633 79.7085 232.8 79.4418 233.04C79.1885 233.267 79.0618 233.607 79.0618 234.06C79.0618 234.58 79.2485 235.013 79.6218 235.36C80.0085 235.693 80.4885 235.86 81.0618 235.86ZM94.2673 228.42L93.2073 228.52C92.2073 228.613 91.4806 228.927 91.0273 229.46C90.5873 229.993 90.3673 230.653 90.3673 231.44V237H88.7473V227.26H90.3273V228.96C90.8739 227.827 91.9473 227.193 93.5473 227.06L94.1273 227.02L94.2673 228.42ZM104.878 237H102.778L97.818 232.34V237H96.198V222.9H97.818V231.68L102.358 227.28H104.418L99.578 231.94L104.878 237ZM114.582 232.38H107.462C107.516 233.513 107.822 234.373 108.382 234.96C108.942 235.533 109.736 235.82 110.762 235.82C111.896 235.82 112.936 235.433 113.882 234.66L114.422 235.84C113.996 236.24 113.449 236.56 112.782 236.8C112.116 237.027 111.436 237.14 110.742 237.14C109.222 237.14 108.022 236.693 107.142 235.8C106.276 234.907 105.842 233.673 105.842 232.1C105.842 231.1 106.036 230.22 106.422 229.46C106.809 228.687 107.349 228.087 108.042 227.66C108.749 227.233 109.549 227.02 110.442 227.02C111.736 227.02 112.749 227.447 113.482 228.3C114.216 229.14 114.582 230.3 114.582 231.78V232.38ZM110.462 228.28C109.609 228.28 108.922 228.547 108.402 229.08C107.896 229.613 107.596 230.367 107.502 231.34H113.162C113.136 230.353 112.889 229.6 112.422 229.08C111.956 228.547 111.302 228.28 110.462 228.28ZM121.591 235.84C121.884 235.84 122.177 235.82 122.471 235.78L122.391 237.06C122.084 237.113 121.751 237.14 121.391 237.14C120.217 237.14 119.331 236.833 118.731 236.22C118.144 235.607 117.851 234.753 117.851 233.66V228.54H115.951V227.26H117.851V224.3H119.471V227.26H122.231V228.54H119.471V233.54C119.471 235.073 120.177 235.84 121.591 235.84ZM134.024 227.02C135.264 227.02 136.184 227.34 136.784 227.98C137.397 228.607 137.704 229.567 137.704 230.86V237H136.124V235.34C135.87 235.913 135.484 236.36 134.964 236.68C134.444 236.987 133.844 237.14 133.164 237.14C132.537 237.14 131.957 237.013 131.424 236.76C130.904 236.507 130.49 236.153 130.184 235.7C129.877 235.247 129.724 234.747 129.724 234.2C129.724 233.467 129.91 232.9 130.284 232.5C130.657 232.087 131.27 231.793 132.124 231.62C132.977 231.433 134.164 231.34 135.684 231.34H136.124V230.68C136.124 229.867 135.957 229.28 135.624 228.92C135.29 228.547 134.75 228.36 134.004 228.36C132.884 228.36 131.77 228.707 130.664 229.4L130.124 228.22C130.63 227.86 131.237 227.573 131.944 227.36C132.664 227.133 133.357 227.02 134.024 227.02ZM133.384 235.86C134.184 235.86 134.837 235.593 135.344 235.06C135.864 234.513 136.124 233.813 136.124 232.96V232.38H135.764C134.59 232.38 133.697 232.433 133.084 232.54C132.47 232.633 132.03 232.8 131.764 233.04C131.51 233.267 131.384 233.607 131.384 234.06C131.384 234.58 131.57 235.013 131.944 235.36C132.33 235.693 132.81 235.86 133.384 235.86ZM145.969 227.02C148.302 227.02 149.469 228.307 149.469 230.88V237H147.849V230.98C147.849 230.073 147.669 229.413 147.309 229C146.962 228.587 146.402 228.38 145.629 228.38C144.736 228.38 144.022 228.653 143.489 229.2C142.956 229.747 142.689 230.487 142.689 231.42V237H141.069V227.26H142.669V228.86C142.989 228.26 143.436 227.807 144.009 227.5C144.582 227.18 145.236 227.02 145.969 227.02ZM156.796 227.02C158.036 227.02 158.956 227.34 159.556 227.98C160.17 228.607 160.476 229.567 160.476 230.86V237H158.896V235.34C158.643 235.913 158.256 236.36 157.736 236.68C157.216 236.987 156.616 237.14 155.936 237.14C155.31 237.14 154.73 237.013 154.196 236.76C153.676 236.507 153.263 236.153 152.956 235.7C152.65 235.247 152.496 234.747 152.496 234.2C152.496 233.467 152.683 232.9 153.056 232.5C153.43 232.087 154.043 231.793 154.896 231.62C155.75 231.433 156.936 231.34 158.456 231.34H158.896V230.68C158.896 229.867 158.73 229.28 158.396 228.92C158.063 228.547 157.523 228.36 156.776 228.36C155.656 228.36 154.543 228.707 153.436 229.4L152.896 228.22C153.403 227.86 154.01 227.573 154.716 227.36C155.436 227.133 156.13 227.02 156.796 227.02ZM156.156 235.86C156.956 235.86 157.61 235.593 158.116 235.06C158.636 234.513 158.896 233.813 158.896 232.96V232.38H158.536C157.363 232.38 156.47 232.433 155.856 232.54C155.243 232.633 154.803 232.8 154.536 233.04C154.283 233.267 154.156 233.607 154.156 234.06C154.156 234.58 154.343 235.013 154.716 235.36C155.103 235.693 155.583 235.86 156.156 235.86ZM163.842 237V222.9H165.462V237H163.842ZM175.87 227.28H177.49L171.73 240.6H170.07L171.71 236.88L167.59 227.28H169.31L172.57 235.24L175.87 227.28ZM182.688 237.14C181.048 237.14 179.748 236.72 178.788 235.88L179.328 234.68C179.848 235.093 180.375 235.393 180.908 235.58C181.455 235.753 182.068 235.84 182.748 235.84C183.468 235.84 184.015 235.72 184.388 235.48C184.775 235.227 184.968 234.867 184.968 234.4C184.968 234.013 184.841 233.707 184.588 233.48C184.335 233.253 183.915 233.073 183.328 232.94L181.688 232.56C180.861 232.373 180.228 232.053 179.788 231.6C179.348 231.147 179.128 230.587 179.128 229.92C179.128 229.053 179.468 228.353 180.148 227.82C180.828 227.287 181.735 227.02 182.868 227.02C183.548 227.02 184.195 227.133 184.808 227.36C185.421 227.573 185.935 227.887 186.348 228.3L185.808 229.48C184.915 228.72 183.935 228.34 182.868 228.34C182.188 228.34 181.655 228.473 181.268 228.74C180.895 228.993 180.708 229.353 180.708 229.82C180.708 230.207 180.821 230.52 181.048 230.76C181.288 230.987 181.668 231.16 182.188 231.28L183.848 231.68C184.755 231.893 185.428 232.22 185.868 232.66C186.308 233.087 186.528 233.647 186.528 234.34C186.528 235.193 186.181 235.873 185.488 236.38C184.808 236.887 183.875 237.14 182.688 237.14ZM189.397 237V227.26H191.017V237H189.397ZM189.237 223.04H191.197V224.86H189.237V223.04ZM197.746 237.14C196.106 237.14 194.806 236.72 193.846 235.88L194.386 234.68C194.906 235.093 195.432 235.393 195.966 235.58C196.512 235.753 197.126 235.84 197.806 235.84C198.526 235.84 199.072 235.72 199.446 235.48C199.832 235.227 200.026 234.867 200.026 234.4C200.026 234.013 199.899 233.707 199.646 233.48C199.392 233.253 198.972 233.073 198.386 232.94L196.746 232.56C195.919 232.373 195.286 232.053 194.846 231.6C194.406 231.147 194.186 230.587 194.186 229.92C194.186 229.053 194.526 228.353 195.206 227.82C195.886 227.287 196.792 227.02 197.926 227.02C198.606 227.02 199.252 227.133 199.866 227.36C200.479 227.573 200.992 227.887 201.406 228.3L200.866 229.48C199.972 228.72 198.992 228.34 197.926 228.34C197.246 228.34 196.712 228.473 196.326 228.74C195.952 228.993 195.766 229.353 195.766 229.82C195.766 230.207 195.879 230.52 196.106 230.76C196.346 230.987 196.726 231.16 197.246 231.28L198.906 231.68C199.812 231.893 200.486 232.22 200.926 232.66C201.366 233.087 201.586 233.647 201.586 234.34C201.586 235.193 201.239 235.873 200.546 236.38C199.866 236.887 198.932 237.14 197.746 237.14ZM210.011 237V227.26H211.631V237H210.011ZM209.851 223.04H211.811V224.86H209.851V223.04ZM218.36 237.14C216.72 237.14 215.42 236.72 214.46 235.88L215 234.68C215.52 235.093 216.046 235.393 216.58 235.58C217.126 235.753 217.74 235.84 218.42 235.84C219.14 235.84 219.686 235.72 220.06 235.48C220.446 235.227 220.64 234.867 220.64 234.4C220.64 234.013 220.513 233.707 220.26 233.48C220.006 233.253 219.586 233.073 219 232.94L217.36 232.56C216.533 232.373 215.9 232.053 215.46 231.6C215.02 231.147 214.8 230.587 214.8 229.92C214.8 229.053 215.14 228.353 215.82 227.82C216.5 227.287 217.406 227.02 218.54 227.02C219.22 227.02 219.866 227.133 220.48 227.36C221.093 227.573 221.606 227.887 222.02 228.3L221.48 229.48C220.586 228.72 219.606 228.34 218.54 228.34C217.86 228.34 217.326 228.473 216.94 228.74C216.566 228.993 216.38 229.353 216.38 229.82C216.38 230.207 216.493 230.52 216.72 230.76C216.96 230.987 217.34 231.16 217.86 231.28L219.52 231.68C220.426 231.893 221.1 232.22 221.54 232.66C221.98 233.087 222.2 233.647 222.2 234.34C222.2 235.193 221.853 235.873 221.16 236.38C220.48 236.887 219.546 237.14 218.36 237.14ZM234.585 227.02C235.825 227.02 236.745 227.34 237.345 227.98C237.959 228.607 238.265 229.567 238.265 230.86V237H236.685V235.34C236.432 235.913 236.045 236.36 235.525 236.68C235.005 236.987 234.405 237.14 233.725 237.14C233.099 237.14 232.519 237.013 231.985 236.76C231.465 236.507 231.052 236.153 230.745 235.7C230.439 235.247 230.285 234.747 230.285 234.2C230.285 233.467 230.472 232.9 230.845 232.5C231.219 232.087 231.832 231.793 232.685 231.62C233.539 231.433 234.725 231.34 236.245 231.34H236.685V230.68C236.685 229.867 236.519 229.28 236.185 228.92C235.852 228.547 235.312 228.36 234.565 228.36C233.445 228.36 232.332 228.707 231.225 229.4L230.685 228.22C231.192 227.86 231.799 227.573 232.505 227.36C233.225 227.133 233.919 227.02 234.585 227.02ZM233.945 235.86C234.745 235.86 235.399 235.593 235.905 235.06C236.425 234.513 236.685 233.813 236.685 232.96V232.38H236.325C235.152 232.38 234.259 232.433 233.645 232.54C233.032 232.633 232.592 232.8 232.325 233.04C232.072 233.267 231.945 233.607 231.945 234.06C231.945 234.58 232.132 235.013 232.505 235.36C232.892 235.693 233.372 235.86 233.945 235.86ZM255.827 227.26V240.6H254.207V235.22C253.914 235.833 253.48 236.307 252.907 236.64C252.347 236.973 251.687 237.14 250.927 237.14C250.06 237.14 249.3 236.933 248.647 236.52C248.007 236.107 247.507 235.527 247.147 234.78C246.787 234.02 246.607 233.133 246.607 232.12C246.607 231.107 246.787 230.22 247.147 229.46C247.507 228.687 248.014 228.087 248.667 227.66C249.32 227.233 250.074 227.02 250.927 227.02C251.687 227.02 252.347 227.187 252.907 227.52C253.48 227.853 253.914 228.327 254.207 228.94V227.26H255.827ZM251.247 235.8C252.194 235.8 252.92 235.48 253.427 234.84C253.947 234.187 254.207 233.267 254.207 232.08C254.207 230.893 253.947 229.98 253.427 229.34C252.92 228.7 252.194 228.38 251.247 228.38C250.3 228.38 249.56 228.713 249.027 229.38C248.507 230.033 248.247 230.947 248.247 232.12C248.247 233.293 248.507 234.2 249.027 234.84C249.56 235.48 250.3 235.8 251.247 235.8ZM267.428 227.26V237H265.848V235.34C265.541 235.927 265.108 236.373 264.548 236.68C264.001 236.987 263.381 237.14 262.688 237.14C261.528 237.14 260.654 236.82 260.068 236.18C259.481 235.527 259.188 234.567 259.188 233.3V227.26H260.808V233.26C260.808 234.127 260.981 234.767 261.328 235.18C261.674 235.58 262.221 235.78 262.968 235.78C263.821 235.78 264.508 235.507 265.028 234.96C265.548 234.4 265.808 233.667 265.808 232.76V227.26H267.428ZM274.799 227.02C276.039 227.02 276.959 227.34 277.559 227.98C278.172 228.607 278.479 229.567 278.479 230.86V237H276.899V235.34C276.645 235.913 276.259 236.36 275.739 236.68C275.219 236.987 274.619 237.14 273.939 237.14C273.312 237.14 272.732 237.013 272.199 236.76C271.679 236.507 271.265 236.153 270.959 235.7C270.652 235.247 270.499 234.747 270.499 234.2C270.499 233.467 270.685 232.9 271.059 232.5C271.432 232.087 272.045 231.793 272.899 231.62C273.752 231.433 274.939 231.34 276.459 231.34H276.899V230.68C276.899 229.867 276.732 229.28 276.399 228.92C276.065 228.547 275.525 228.36 274.779 228.36C273.659 228.36 272.545 228.707 271.439 229.4L270.899 228.22C271.405 227.86 272.012 227.573 272.719 227.36C273.439 227.133 274.132 227.02 274.799 227.02ZM274.159 235.86C274.959 235.86 275.612 235.593 276.119 235.06C276.639 234.513 276.899 233.813 276.899 232.96V232.38H276.539C275.365 232.38 274.472 232.433 273.859 232.54C273.245 232.633 272.805 232.8 272.539 233.04C272.285 233.267 272.159 233.607 272.159 234.06C272.159 234.58 272.345 235.013 272.719 235.36C273.105 235.693 273.585 235.86 274.159 235.86ZM286.744 227.02C289.077 227.02 290.244 228.307 290.244 230.88V237H288.624V230.98C288.624 230.073 288.444 229.413 288.084 229C287.737 228.587 287.177 228.38 286.404 228.38C285.511 228.38 284.797 228.653 284.264 229.2C283.731 229.747 283.464 230.487 283.464 231.42V237H281.844V227.26H283.444V228.86C283.764 228.26 284.211 227.807 284.784 227.5C285.357 227.18 286.011 227.02 286.744 227.02ZM297.891 235.84C298.185 235.84 298.478 235.82 298.771 235.78L298.691 237.06C298.385 237.113 298.051 237.14 297.691 237.14C296.518 237.14 295.631 236.833 295.031 236.22C294.445 235.607 294.151 234.753 294.151 233.66V228.54H292.251V227.26H294.151V224.3H295.771V227.26H298.531V228.54H295.771V233.54C295.771 235.073 296.478 235.84 297.891 235.84ZM300.808 237V227.26H302.428V237H300.808ZM300.648 223.04H302.608V224.86H300.648V223.04ZM310.137 235.84C310.43 235.84 310.723 235.82 311.017 235.78L310.937 237.06C310.63 237.113 310.297 237.14 309.937 237.14C308.763 237.14 307.877 236.833 307.277 236.22C306.69 235.607 306.397 234.753 306.397 233.66V228.54H304.497V227.26H306.397V224.3H308.017V227.26H310.777V228.54H308.017V233.54C308.017 235.073 308.723 235.84 310.137 235.84ZM317.014 227.02C318.254 227.02 319.174 227.34 319.774 227.98C320.387 228.607 320.694 229.567 320.694 230.86V237H319.114V235.34C318.86 235.913 318.474 236.36 317.954 236.68C317.434 236.987 316.834 237.14 316.154 237.14C315.527 237.14 314.947 237.013 314.414 236.76C313.894 236.507 313.48 236.153 313.174 235.7C312.867 235.247 312.714 234.747 312.714 234.2C312.714 233.467 312.9 232.9 313.274 232.5C313.647 232.087 314.26 231.793 315.114 231.62C315.967 231.433 317.154 231.34 318.674 231.34H319.114V230.68C319.114 229.867 318.947 229.28 318.614 228.92C318.28 228.547 317.74 228.36 316.994 228.36C315.874 228.36 314.76 228.707 313.654 229.4L313.114 228.22C313.62 227.86 314.227 227.573 314.934 227.36C315.654 227.133 316.347 227.02 317.014 227.02ZM316.374 235.86C317.174 235.86 317.827 235.593 318.334 235.06C318.854 234.513 319.114 233.813 319.114 232.96V232.38H318.754C317.58 232.38 316.687 232.433 316.074 232.54C315.46 232.633 315.02 232.8 314.754 233.04C314.5 233.267 314.374 233.607 314.374 234.06C314.374 234.58 314.56 235.013 314.934 235.36C315.32 235.693 315.8 235.86 316.374 235.86ZM328.339 235.84C328.632 235.84 328.926 235.82 329.219 235.78L329.139 237.06C328.832 237.113 328.499 237.14 328.139 237.14C326.966 237.14 326.079 236.833 325.479 236.22C324.892 235.607 324.599 234.753 324.599 233.66V228.54H322.699V227.26H324.599V224.3H326.219V227.26H328.979V228.54H326.219V233.54C326.219 235.073 326.926 235.84 328.339 235.84ZM331.256 237V227.26H332.876V237H331.256ZM331.096 223.04H333.056V224.86H331.096V223.04ZM343.284 227.28H344.904L340.704 237H339.184L335.004 227.28H336.724L339.984 235.24L343.284 227.28ZM355.021 232.38H347.901C347.954 233.513 348.261 234.373 348.821 234.96C349.381 235.533 350.174 235.82 351.201 235.82C352.334 235.82 353.374 235.433 354.321 234.66L354.861 235.84C354.434 236.24 353.887 236.56 353.221 236.8C352.554 237.027 351.874 237.14 351.181 237.14C349.661 237.14 348.461 236.693 347.581 235.8C346.714 234.907 346.281 233.673 346.281 232.1C346.281 231.1 346.474 230.22 346.861 229.46C347.247 228.687 347.787 228.087 348.481 227.66C349.187 227.233 349.987 227.02 350.881 227.02C352.174 227.02 353.187 227.447 353.921 228.3C354.654 229.14 355.021 230.3 355.021 231.78V232.38ZM350.901 228.28C350.047 228.28 349.361 228.547 348.841 229.08C348.334 229.613 348.034 230.367 347.941 231.34H353.601C353.574 230.353 353.327 229.6 352.861 229.08C352.394 228.547 351.741 228.28 350.901 228.28ZM367.324 227.02C368.564 227.02 369.484 227.34 370.084 227.98C370.697 228.607 371.004 229.567 371.004 230.86V237H369.424V235.34C369.17 235.913 368.784 236.36 368.264 236.68C367.744 236.987 367.144 237.14 366.464 237.14C365.837 237.14 365.257 237.013 364.724 236.76C364.204 236.507 363.79 236.153 363.484 235.7C363.177 235.247 363.024 234.747 363.024 234.2C363.024 233.467 363.21 232.9 363.584 232.5C363.957 232.087 364.57 231.793 365.424 231.62C366.277 231.433 367.464 231.34 368.984 231.34H369.424V230.68C369.424 229.867 369.257 229.28 368.924 228.92C368.59 228.547 368.05 228.36 367.304 228.36C366.184 228.36 365.07 228.707 363.964 229.4L363.424 228.22C363.93 227.86 364.537 227.573 365.244 227.36C365.964 227.133 366.657 227.02 367.324 227.02ZM366.684 235.86C367.484 235.86 368.137 235.593 368.644 235.06C369.164 234.513 369.424 233.813 369.424 232.96V232.38H369.064C367.89 232.38 366.997 232.433 366.384 232.54C365.77 232.633 365.33 232.8 365.064 233.04C364.81 233.267 364.684 233.607 364.684 234.06C364.684 234.58 364.87 235.013 365.244 235.36C365.63 235.693 366.11 235.86 366.684 235.86ZM379.269 227.02C381.602 227.02 382.769 228.307 382.769 230.88V237H381.149V230.98C381.149 230.073 380.969 229.413 380.609 229C380.262 228.587 379.702 228.38 378.929 228.38C378.036 228.38 377.322 228.653 376.789 229.2C376.256 229.747 375.989 230.487 375.989 231.42V237H374.369V227.26H375.969V228.86C376.289 228.26 376.736 227.807 377.309 227.5C377.882 227.18 378.536 227.02 379.269 227.02ZM394.776 222.9V237H393.156V235.22C392.863 235.833 392.43 236.307 391.856 236.64C391.296 236.973 390.636 237.14 389.876 237.14C389.023 237.14 388.27 236.927 387.616 236.5C386.963 236.073 386.456 235.48 386.096 234.72C385.736 233.947 385.556 233.053 385.556 232.04C385.556 231.04 385.736 230.16 386.096 229.4C386.456 228.64 386.963 228.053 387.616 227.64C388.27 227.227 389.023 227.02 389.876 227.02C390.636 227.02 391.296 227.187 391.856 227.52C392.43 227.853 392.863 228.327 393.156 228.94V222.9H394.776ZM390.196 235.8C391.143 235.8 391.87 235.48 392.376 234.84C392.896 234.187 393.156 233.267 393.156 232.08C393.156 230.893 392.896 229.98 392.376 229.34C391.87 228.7 391.143 228.38 390.196 228.38C389.25 228.38 388.51 228.7 387.976 229.34C387.456 229.98 387.196 230.88 387.196 232.04C387.196 233.227 387.456 234.153 387.976 234.82C388.51 235.473 389.25 235.8 390.196 235.8ZM28.0197 261.26V274.6H26.3997V269.22C26.1064 269.833 25.673 270.307 25.0997 270.64C24.5397 270.973 23.8797 271.14 23.1197 271.14C22.253 271.14 21.493 270.933 20.8397 270.52C20.1997 270.107 19.6997 269.527 19.3397 268.78C18.9797 268.02 18.7997 267.133 18.7997 266.12C18.7997 265.107 18.9797 264.22 19.3397 263.46C19.6997 262.687 20.2064 262.087 20.8597 261.66C21.513 261.233 22.2664 261.02 23.1197 261.02C23.8797 261.02 24.5397 261.187 25.0997 261.52C25.673 261.853 26.1064 262.327 26.3997 262.94V261.26H28.0197ZM23.4397 269.8C24.3864 269.8 25.113 269.48 25.6197 268.84C26.1397 268.187 26.3997 267.267 26.3997 266.08C26.3997 264.893 26.1397 263.98 25.6197 263.34C25.113 262.7 24.3864 262.38 23.4397 262.38C22.493 262.38 21.753 262.713 21.2197 263.38C20.6997 264.033 20.4397 264.947 20.4397 266.12C20.4397 267.293 20.6997 268.2 21.2197 268.84C21.753 269.48 22.493 269.8 23.4397 269.8ZM39.6203 261.26V271H38.0403V269.34C37.7336 269.927 37.3003 270.373 36.7403 270.68C36.1936 270.987 35.5736 271.14 34.8803 271.14C33.7203 271.14 32.847 270.82 32.2603 270.18C31.6736 269.527 31.3803 268.567 31.3803 267.3V261.26H33.0003V267.26C33.0003 268.127 33.1736 268.767 33.5203 269.18C33.867 269.58 34.4136 269.78 35.1603 269.78C36.0136 269.78 36.7003 269.507 37.2203 268.96C37.7403 268.4 38.0003 267.667 38.0003 266.76V261.26H39.6203ZM46.9912 261.02C48.2312 261.02 49.1512 261.34 49.7512 261.98C50.3646 262.607 50.6712 263.567 50.6712 264.86V271H49.0912V269.34C48.8379 269.913 48.4512 270.36 47.9312 270.68C47.4112 270.987 46.8112 271.14 46.1312 271.14C45.5046 271.14 44.9246 271.013 44.3912 270.76C43.8712 270.507 43.4579 270.153 43.1512 269.7C42.8446 269.247 42.6912 268.747 42.6912 268.2C42.6912 267.467 42.8779 266.9 43.2512 266.5C43.6246 266.087 44.2379 265.793 45.0912 265.62C45.9446 265.433 47.1312 265.34 48.6512 265.34H49.0912V264.68C49.0912 263.867 48.9246 263.28 48.5912 262.92C48.2579 262.547 47.7179 262.36 46.9712 262.36C45.8512 262.36 44.7379 262.707 43.6312 263.4L43.0912 262.22C43.5979 261.86 44.2046 261.573 44.9112 261.36C45.6312 261.133 46.3246 261.02 46.9912 261.02ZM46.3512 269.86C47.1512 269.86 47.8046 269.593 48.3112 269.06C48.8312 268.513 49.0912 267.813 49.0912 266.96V266.38H48.7312C47.5579 266.38 46.6646 266.433 46.0512 266.54C45.4379 266.633 44.9979 266.8 44.7312 267.04C44.4779 267.267 44.3512 267.607 44.3512 268.06C44.3512 268.58 44.5379 269.013 44.9112 269.36C45.2979 269.693 45.7779 269.86 46.3512 269.86ZM54.0367 271V256.9H55.6567V271H54.0367ZM59.0852 271V261.26H60.7052V271H59.0852ZM58.9252 257.04H60.8852V258.86H58.9252V257.04ZM68.4136 269.84C68.7069 269.84 69.0003 269.82 69.2936 269.78L69.2136 271.06C68.9069 271.113 68.5736 271.14 68.2136 271.14C67.0403 271.14 66.1536 270.833 65.5536 270.22C64.9669 269.607 64.6736 268.753 64.6736 267.66V262.54H62.7736V261.26H64.6736V258.3H66.2936V261.26H69.0536V262.54H66.2936V267.54C66.2936 269.073 67.0003 269.84 68.4136 269.84ZM75.2905 261.02C76.5305 261.02 77.4505 261.34 78.0505 261.98C78.6638 262.607 78.9705 263.567 78.9705 264.86V271H77.3905V269.34C77.1371 269.913 76.7505 270.36 76.2305 270.68C75.7105 270.987 75.1105 271.14 74.4305 271.14C73.8038 271.14 73.2238 271.013 72.6905 270.76C72.1705 270.507 71.7571 270.153 71.4505 269.7C71.1438 269.247 70.9905 268.747 70.9905 268.2C70.9905 267.467 71.1771 266.9 71.5505 266.5C71.9238 266.087 72.5371 265.793 73.3905 265.62C74.2438 265.433 75.4305 265.34 76.9505 265.34H77.3905V264.68C77.3905 263.867 77.2238 263.28 76.8905 262.92C76.5571 262.547 76.0171 262.36 75.2705 262.36C74.1505 262.36 73.0371 262.707 71.9305 263.4L71.3905 262.22C71.8971 261.86 72.5038 261.573 73.2105 261.36C73.9305 261.133 74.6238 261.02 75.2905 261.02ZM74.6505 269.86C75.4505 269.86 76.1038 269.593 76.6105 269.06C77.1305 268.513 77.3905 267.813 77.3905 266.96V266.38H77.0305C75.8571 266.38 74.9638 266.433 74.3505 266.54C73.7371 266.633 73.2971 266.8 73.0305 267.04C72.7771 267.267 72.6505 267.607 72.6505 268.06C72.6505 268.58 72.8371 269.013 73.2105 269.36C73.5971 269.693 74.0771 269.86 74.6505 269.86ZM86.6159 269.84C86.9093 269.84 87.2026 269.82 87.4959 269.78L87.4159 271.06C87.1093 271.113 86.7759 271.14 86.4159 271.14C85.2426 271.14 84.3559 270.833 83.7559 270.22C83.1693 269.607 82.8759 268.753 82.8759 267.66V262.54H80.9759V261.26H82.8759V258.3H84.4959V261.26H87.2559V262.54H84.4959V267.54C84.4959 269.073 85.2026 269.84 86.6159 269.84ZM89.5328 271V261.26H91.1528V271H89.5328ZM89.3728 257.04H91.3328V258.86H89.3728V257.04ZM101.561 261.28H103.181L98.9812 271H97.4612L93.2812 261.28H95.0012L98.2612 269.24L101.561 261.28ZM113.297 266.38H106.177C106.231 267.513 106.537 268.373 107.097 268.96C107.657 269.533 108.451 269.82 109.477 269.82C110.611 269.82 111.651 269.433 112.597 268.66L113.137 269.84C112.711 270.24 112.164 270.56 111.497 270.8C110.831 271.027 110.151 271.14 109.457 271.14C107.937 271.14 106.737 270.693 105.857 269.8C104.991 268.907 104.557 267.673 104.557 266.1C104.557 265.1 104.751 264.22 105.137 263.46C105.524 262.687 106.064 262.087 106.757 261.66C107.464 261.233 108.264 261.02 109.157 261.02C110.451 261.02 111.464 261.447 112.197 262.3C112.931 263.14 113.297 264.3 113.297 265.78V266.38ZM109.177 262.28C108.324 262.28 107.637 262.547 107.117 263.08C106.611 263.613 106.311 264.367 106.217 265.34H111.877C111.851 264.353 111.604 263.6 111.137 263.08C110.671 262.547 110.017 262.28 109.177 262.28ZM125.601 261.02C126.841 261.02 127.761 261.34 128.361 261.98C128.974 262.607 129.281 263.567 129.281 264.86V271H127.701V269.34C127.447 269.913 127.061 270.36 126.541 270.68C126.021 270.987 125.421 271.14 124.741 271.14C124.114 271.14 123.534 271.013 123.001 270.76C122.481 270.507 122.067 270.153 121.761 269.7C121.454 269.247 121.301 268.747 121.301 268.2C121.301 267.467 121.487 266.9 121.861 266.5C122.234 266.087 122.847 265.793 123.701 265.62C124.554 265.433 125.741 265.34 127.261 265.34H127.701V264.68C127.701 263.867 127.534 263.28 127.201 262.92C126.867 262.547 126.327 262.36 125.581 262.36C124.461 262.36 123.347 262.707 122.241 263.4L121.701 262.22C122.207 261.86 122.814 261.573 123.521 261.36C124.241 261.133 124.934 261.02 125.601 261.02ZM124.961 269.86C125.761 269.86 126.414 269.593 126.921 269.06C127.441 268.513 127.701 267.813 127.701 266.96V266.38H127.341C126.167 266.38 125.274 266.433 124.661 266.54C124.047 266.633 123.607 266.8 123.341 267.04C123.087 267.267 122.961 267.607 122.961 268.06C122.961 268.58 123.147 269.013 123.521 269.36C123.907 269.693 124.387 269.86 124.961 269.86ZM135.946 271.14C134.306 271.14 133.006 270.72 132.046 269.88L132.586 268.68C133.106 269.093 133.633 269.393 134.166 269.58C134.713 269.753 135.326 269.84 136.006 269.84C136.726 269.84 137.273 269.72 137.646 269.48C138.033 269.227 138.226 268.867 138.226 268.4C138.226 268.013 138.099 267.707 137.846 267.48C137.593 267.253 137.173 267.073 136.586 266.94L134.946 266.56C134.119 266.373 133.486 266.053 133.046 265.6C132.606 265.147 132.386 264.587 132.386 263.92C132.386 263.053 132.726 262.353 133.406 261.82C134.086 261.287 134.993 261.02 136.126 261.02C136.806 261.02 137.453 261.133 138.066 261.36C138.679 261.573 139.193 261.887 139.606 262.3L139.066 263.48C138.173 262.72 137.193 262.34 136.126 262.34C135.446 262.34 134.913 262.473 134.526 262.74C134.153 262.993 133.966 263.353 133.966 263.82C133.966 264.207 134.079 264.52 134.306 264.76C134.546 264.987 134.926 265.16 135.446 265.28L137.106 265.68C138.013 265.893 138.686 266.22 139.126 266.66C139.566 267.087 139.786 267.647 139.786 268.34C139.786 269.193 139.439 269.873 138.746 270.38C138.066 270.887 137.133 271.14 135.946 271.14ZM145.955 271.14C144.315 271.14 143.015 270.72 142.055 269.88L142.595 268.68C143.115 269.093 143.642 269.393 144.175 269.58C144.722 269.753 145.335 269.84 146.015 269.84C146.735 269.84 147.282 269.72 147.655 269.48C148.042 269.227 148.235 268.867 148.235 268.4C148.235 268.013 148.109 267.707 147.855 267.48C147.602 267.253 147.182 267.073 146.595 266.94L144.955 266.56C144.129 266.373 143.495 266.053 143.055 265.6C142.615 265.147 142.395 264.587 142.395 263.92C142.395 263.053 142.735 262.353 143.415 261.82C144.095 261.287 145.002 261.02 146.135 261.02C146.815 261.02 147.462 261.133 148.075 261.36C148.689 261.573 149.202 261.887 149.615 262.3L149.075 263.48C148.182 262.72 147.202 262.34 146.135 262.34C145.455 262.34 144.922 262.473 144.535 262.74C144.162 262.993 143.975 263.353 143.975 263.82C143.975 264.207 144.089 264.52 144.315 264.76C144.555 264.987 144.935 265.16 145.455 265.28L147.115 265.68C148.022 265.893 148.695 266.22 149.135 266.66C149.575 267.087 149.795 267.647 149.795 268.34C149.795 269.193 149.449 269.873 148.755 270.38C148.075 270.887 147.142 271.14 145.955 271.14ZM160.825 266.38H153.705C153.758 267.513 154.065 268.373 154.625 268.96C155.185 269.533 155.978 269.82 157.005 269.82C158.138 269.82 159.178 269.433 160.125 268.66L160.665 269.84C160.238 270.24 159.692 270.56 159.025 270.8C158.358 271.027 157.678 271.14 156.985 271.14C155.465 271.14 154.265 270.693 153.385 269.8C152.518 268.907 152.085 267.673 152.085 266.1C152.085 265.1 152.278 264.22 152.665 263.46C153.052 262.687 153.592 262.087 154.285 261.66C154.992 261.233 155.792 261.02 156.685 261.02C157.978 261.02 158.992 261.447 159.725 262.3C160.458 263.14 160.825 264.3 160.825 265.78V266.38ZM156.705 262.28C155.852 262.28 155.165 262.547 154.645 263.08C154.138 263.613 153.838 264.367 153.745 265.34H159.405C159.378 264.353 159.132 263.6 158.665 263.08C158.198 262.547 157.545 262.28 156.705 262.28ZM166.912 271.14C165.272 271.14 163.972 270.72 163.012 269.88L163.552 268.68C164.072 269.093 164.598 269.393 165.132 269.58C165.678 269.753 166.292 269.84 166.972 269.84C167.692 269.84 168.238 269.72 168.612 269.48C168.998 269.227 169.192 268.867 169.192 268.4C169.192 268.013 169.065 267.707 168.812 267.48C168.558 267.253 168.138 267.073 167.552 266.94L165.912 266.56C165.085 266.373 164.452 266.053 164.012 265.6C163.572 265.147 163.352 264.587 163.352 263.92C163.352 263.053 163.692 262.353 164.372 261.82C165.052 261.287 165.958 261.02 167.092 261.02C167.772 261.02 168.418 261.133 169.032 261.36C169.645 261.573 170.158 261.887 170.572 262.3L170.032 263.48C169.138 262.72 168.158 262.34 167.092 262.34C166.412 262.34 165.878 262.473 165.492 262.74C165.118 262.993 164.932 263.353 164.932 263.82C164.932 264.207 165.045 264.52 165.272 264.76C165.512 264.987 165.892 265.16 166.412 265.28L168.072 265.68C168.978 265.893 169.652 266.22 170.092 266.66C170.532 267.087 170.752 267.647 170.752 268.34C170.752 269.193 170.405 269.873 169.712 270.38C169.032 270.887 168.098 271.14 166.912 271.14ZM176.921 271.14C175.281 271.14 173.981 270.72 173.021 269.88L173.561 268.68C174.081 269.093 174.608 269.393 175.141 269.58C175.688 269.753 176.301 269.84 176.981 269.84C177.701 269.84 178.248 269.72 178.621 269.48C179.008 269.227 179.201 268.867 179.201 268.4C179.201 268.013 179.074 267.707 178.821 267.48C178.568 267.253 178.148 267.073 177.561 266.94L175.921 266.56C175.094 266.373 174.461 266.053 174.021 265.6C173.581 265.147 173.361 264.587 173.361 263.92C173.361 263.053 173.701 262.353 174.381 261.82C175.061 261.287 175.968 261.02 177.101 261.02C177.781 261.02 178.428 261.133 179.041 261.36C179.654 261.573 180.168 261.887 180.581 262.3L180.041 263.48C179.148 262.72 178.168 262.34 177.101 262.34C176.421 262.34 175.888 262.473 175.501 262.74C175.128 262.993 174.941 263.353 174.941 263.82C174.941 264.207 175.054 264.52 175.281 264.76C175.521 264.987 175.901 265.16 176.421 265.28L178.081 265.68C178.988 265.893 179.661 266.22 180.101 266.66C180.541 267.087 180.761 267.647 180.761 268.34C180.761 269.193 180.414 269.873 179.721 270.38C179.041 270.887 178.108 271.14 176.921 271.14ZM194.47 261.02C196.63 261.02 197.71 262.307 197.71 264.88V271H196.09V264.96C196.09 264.067 195.93 263.413 195.61 263C195.304 262.587 194.804 262.38 194.11 262.38C193.297 262.38 192.657 262.653 192.19 263.2C191.724 263.747 191.49 264.493 191.49 265.44V271H189.87V264.96C189.87 264.053 189.71 263.4 189.39 263C189.07 262.587 188.564 262.38 187.87 262.38C187.057 262.38 186.417 262.653 185.95 263.2C185.484 263.747 185.25 264.493 185.25 265.44V271H183.63V261.26H185.23V262.8C185.524 262.227 185.93 261.787 186.45 261.48C186.97 261.173 187.57 261.02 188.25 261.02C189.757 261.02 190.75 261.66 191.23 262.94C191.51 262.34 191.937 261.873 192.51 261.54C193.084 261.193 193.737 261.02 194.47 261.02ZM209.222 266.38H202.102C202.155 267.513 202.462 268.373 203.022 268.96C203.582 269.533 204.375 269.82 205.402 269.82C206.535 269.82 207.575 269.433 208.522 268.66L209.062 269.84C208.635 270.24 208.088 270.56 207.422 270.8C206.755 271.027 206.075 271.14 205.382 271.14C203.862 271.14 202.662 270.693 201.782 269.8C200.915 268.907 200.482 267.673 200.482 266.1C200.482 265.1 200.675 264.22 201.062 263.46C201.448 262.687 201.988 262.087 202.682 261.66C203.388 261.233 204.188 261.02 205.082 261.02C206.375 261.02 207.388 261.447 208.122 262.3C208.855 263.14 209.222 264.3 209.222 265.78V266.38ZM205.102 262.28C204.248 262.28 203.562 262.547 203.042 263.08C202.535 263.613 202.235 264.367 202.142 265.34H207.802C207.775 264.353 207.528 263.6 207.062 263.08C206.595 262.547 205.942 262.28 205.102 262.28ZM216.909 261.02C219.242 261.02 220.409 262.307 220.409 264.88V271H218.789V264.98C218.789 264.073 218.609 263.413 218.249 263C217.902 262.587 217.342 262.38 216.569 262.38C215.675 262.38 214.962 262.653 214.429 263.2C213.895 263.747 213.629 264.487 213.629 265.42V271H212.009V261.26H213.609V262.86C213.929 262.26 214.375 261.807 214.949 261.5C215.522 261.18 216.175 261.02 216.909 261.02ZM228.056 269.84C228.349 269.84 228.642 269.82 228.936 269.78L228.856 271.06C228.549 271.113 228.216 271.14 227.856 271.14C226.682 271.14 225.796 270.833 225.196 270.22C224.609 269.607 224.316 268.753 224.316 267.66V262.54H222.416V261.26H224.316V258.3H225.936V261.26H228.696V262.54H225.936V267.54C225.936 269.073 226.642 269.84 228.056 269.84ZM240.569 271.14C239.649 271.14 238.836 270.933 238.129 270.52C237.436 270.107 236.896 269.52 236.509 268.76C236.136 267.987 235.949 267.093 235.949 266.08C235.949 265.067 236.136 264.18 236.509 263.42C236.896 262.647 237.436 262.053 238.129 261.64C238.836 261.227 239.649 261.02 240.569 261.02C241.489 261.02 242.302 261.227 243.009 261.64C243.716 262.053 244.256 262.647 244.629 263.42C245.016 264.18 245.209 265.067 245.209 266.08C245.209 267.093 245.016 267.987 244.629 268.76C244.256 269.52 243.716 270.107 243.009 270.52C242.302 270.933 241.489 271.14 240.569 271.14ZM240.569 269.8C241.529 269.8 242.262 269.487 242.769 268.86C243.289 268.22 243.549 267.293 243.549 266.08C243.549 264.893 243.289 263.98 242.769 263.34C242.249 262.687 241.516 262.36 240.569 262.36C239.622 262.36 238.889 262.687 238.369 263.34C237.849 263.98 237.589 264.893 237.589 266.08C237.589 267.28 237.842 268.2 238.349 268.84C238.869 269.48 239.609 269.8 240.569 269.8ZM250.163 261.26H252.923V262.54H250.163V271H248.543V262.54H246.643V261.26H248.543V260.94C248.543 259.647 248.863 258.667 249.503 258C250.156 257.333 251.156 256.96 252.503 256.88L253.303 256.84L253.423 258.1L252.503 258.16C251.69 258.213 251.096 258.447 250.723 258.86C250.35 259.26 250.163 259.88 250.163 260.72V261.26ZM264.482 261.02C265.722 261.02 266.642 261.34 267.242 261.98C267.855 262.607 268.162 263.567 268.162 264.86V271H266.582V269.34C266.329 269.913 265.942 270.36 265.422 270.68C264.902 270.987 264.302 271.14 263.622 271.14C262.995 271.14 262.415 271.013 261.882 270.76C261.362 270.507 260.949 270.153 260.642 269.7C260.335 269.247 260.182 268.747 260.182 268.2C260.182 267.467 260.369 266.9 260.742 266.5C261.115 266.087 261.729 265.793 262.582 265.62C263.435 265.433 264.622 265.34 266.142 265.34H266.582V264.68C266.582 263.867 266.415 263.28 266.082 262.92C265.749 262.547 265.209 262.36 264.462 262.36C263.342 262.36 262.229 262.707 261.122 263.4L260.582 262.22C261.089 261.86 261.695 261.573 262.402 261.36C263.122 261.133 263.815 261.02 264.482 261.02ZM263.842 269.86C264.642 269.86 265.295 269.593 265.802 269.06C266.322 268.513 266.582 267.813 266.582 266.96V266.38H266.222C265.049 266.38 264.155 266.433 263.542 266.54C262.929 266.633 262.489 266.8 262.222 267.04C261.969 267.267 261.842 267.607 261.842 268.06C261.842 268.58 262.029 269.013 262.402 269.36C262.789 269.693 263.269 269.86 263.842 269.86ZM287.924 261.02C290.084 261.02 291.164 262.307 291.164 264.88V271H289.544V264.96C289.544 264.067 289.384 263.413 289.064 263C288.757 262.587 288.257 262.38 287.564 262.38C286.75 262.38 286.11 262.653 285.644 263.2C285.177 263.747 284.944 264.493 284.944 265.44V271H283.324V264.96C283.324 264.053 283.164 263.4 282.844 263C282.524 262.587 282.017 262.38 281.324 262.38C280.51 262.38 279.87 262.653 279.404 263.2C278.937 263.747 278.704 264.493 278.704 265.44V271H277.084V261.26H278.684V262.8C278.977 262.227 279.384 261.787 279.904 261.48C280.424 261.173 281.024 261.02 281.704 261.02C283.21 261.02 284.204 261.66 284.684 262.94C284.964 262.34 285.39 261.873 285.964 261.54C286.537 261.193 287.19 261.02 287.924 261.02ZM298.475 261.02C299.715 261.02 300.635 261.34 301.235 261.98C301.848 262.607 302.155 263.567 302.155 264.86V271H300.575V269.34C300.321 269.913 299.935 270.36 299.415 270.68C298.895 270.987 298.295 271.14 297.615 271.14C296.988 271.14 296.408 271.013 295.875 270.76C295.355 270.507 294.941 270.153 294.635 269.7C294.328 269.247 294.175 268.747 294.175 268.2C294.175 267.467 294.361 266.9 294.735 266.5C295.108 266.087 295.721 265.793 296.575 265.62C297.428 265.433 298.615 265.34 300.135 265.34H300.575V264.68C300.575 263.867 300.408 263.28 300.075 262.92C299.741 262.547 299.201 262.36 298.455 262.36C297.335 262.36 296.221 262.707 295.115 263.4L294.575 262.22C295.081 261.86 295.688 261.573 296.395 261.36C297.115 261.133 297.808 261.02 298.475 261.02ZM297.835 269.86C298.635 269.86 299.288 269.593 299.795 269.06C300.315 268.513 300.575 267.813 300.575 266.96V266.38H300.215C299.041 266.38 298.148 266.433 297.535 266.54C296.921 266.633 296.481 266.8 296.215 267.04C295.961 267.267 295.835 267.607 295.835 268.06C295.835 268.58 296.021 269.013 296.395 269.36C296.781 269.693 297.261 269.86 297.835 269.86ZM311.04 262.42L309.98 262.52C308.98 262.613 308.254 262.927 307.8 263.46C307.36 263.993 307.14 264.653 307.14 265.44V271H305.52V261.26H307.1V262.96C307.647 261.827 308.72 261.193 310.32 261.06L310.9 261.02L311.04 262.42ZM321.651 271H319.551L314.591 266.34V271H312.971V256.9H314.591V265.68L319.131 261.28H321.191L316.351 265.94L321.651 271ZM331.355 266.38H324.235C324.289 267.513 324.595 268.373 325.155 268.96C325.715 269.533 326.509 269.82 327.535 269.82C328.669 269.82 329.709 269.433 330.655 268.66L331.195 269.84C330.769 270.24 330.222 270.56 329.555 270.8C328.889 271.027 328.209 271.14 327.515 271.14C325.995 271.14 324.795 270.693 323.915 269.8C323.049 268.907 322.615 267.673 322.615 266.1C322.615 265.1 322.809 264.22 323.195 263.46C323.582 262.687 324.122 262.087 324.815 261.66C325.522 261.233 326.322 261.02 327.215 261.02C328.509 261.02 329.522 261.447 330.255 262.3C330.989 263.14 331.355 264.3 331.355 265.78V266.38ZM327.235 262.28C326.382 262.28 325.695 262.547 325.175 263.08C324.669 263.613 324.369 264.367 324.275 265.34H329.935C329.909 264.353 329.662 263.6 329.195 263.08C328.729 262.547 328.075 262.28 327.235 262.28ZM338.364 269.84C338.657 269.84 338.95 269.82 339.244 269.78L339.164 271.06C338.857 271.113 338.524 271.14 338.164 271.14C336.99 271.14 336.104 270.833 335.504 270.22C334.917 269.607 334.624 268.753 334.624 267.66V262.54H332.724V261.26H334.624V258.3H336.244V261.26H339.004V262.54H336.244V267.54C336.244 269.073 336.95 269.84 338.364 269.84ZM341.314 268.96H343.354V271H341.314V268.96ZM352.32 271V256.9H353.96V271H352.32ZM361.878 269.84C362.171 269.84 362.464 269.82 362.758 269.78L362.678 271.06C362.371 271.113 362.038 271.14 361.678 271.14C360.504 271.14 359.618 270.833 359.018 270.22C358.431 269.607 358.138 268.753 358.138 267.66V262.54H356.238V261.26H358.138V258.3H359.758V261.26H362.518V262.54H359.758V267.54C359.758 269.073 360.464 269.84 361.878 269.84ZM370.351 271V256.9H371.971V271H370.351ZM379.439 271.14C378.519 271.14 377.706 270.933 376.999 270.52C376.306 270.107 375.766 269.52 375.379 268.76C375.006 267.987 374.819 267.093 374.819 266.08C374.819 265.067 375.006 264.18 375.379 263.42C375.766 262.647 376.306 262.053 376.999 261.64C377.706 261.227 378.519 261.02 379.439 261.02C380.359 261.02 381.173 261.227 381.879 261.64C382.586 262.053 383.126 262.647 383.499 263.42C383.886 264.18 384.079 265.067 384.079 266.08C384.079 267.093 383.886 267.987 383.499 268.76C383.126 269.52 382.586 270.107 381.879 270.52C381.173 270.933 380.359 271.14 379.439 271.14ZM379.439 269.8C380.399 269.8 381.133 269.487 381.639 268.86C382.159 268.22 382.419 267.293 382.419 266.08C382.419 264.893 382.159 263.98 381.639 263.34C381.119 262.687 380.386 262.36 379.439 262.36C378.493 262.36 377.759 262.687 377.239 263.34C376.719 263.98 376.459 264.893 376.459 266.08C376.459 267.28 376.713 268.2 377.219 268.84C377.739 269.48 378.479 269.8 379.439 269.8ZM390.933 271.14C390.013 271.14 389.2 270.933 388.493 270.52C387.8 270.107 387.26 269.52 386.873 268.76C386.5 267.987 386.313 267.093 386.313 266.08C386.313 265.067 386.5 264.18 386.873 263.42C387.26 262.647 387.8 262.053 388.493 261.64C389.2 261.227 390.013 261.02 390.933 261.02C391.853 261.02 392.666 261.227 393.373 261.64C394.08 262.053 394.62 262.647 394.993 263.42C395.38 264.18 395.573 265.067 395.573 266.08C395.573 267.093 395.38 267.987 394.993 268.76C394.62 269.52 394.08 270.107 393.373 270.52C392.666 270.933 391.853 271.14 390.933 271.14ZM390.933 269.8C391.893 269.8 392.626 269.487 393.133 268.86C393.653 268.22 393.913 267.293 393.913 266.08C393.913 264.893 393.653 263.98 393.133 263.34C392.613 262.687 391.88 262.36 390.933 262.36C389.986 262.36 389.253 262.687 388.733 263.34C388.213 263.98 387.953 264.893 387.953 266.08C387.953 267.28 388.206 268.2 388.713 268.84C389.233 269.48 389.973 269.8 390.933 269.8ZM407.067 271H404.967L400.007 266.34V271H398.387V256.9H400.007V265.68L404.547 261.28H406.607L401.767 265.94L407.067 271ZM411.911 271.14C410.271 271.14 408.971 270.72 408.011 269.88L408.551 268.68C409.071 269.093 409.598 269.393 410.131 269.58C410.678 269.753 411.291 269.84 411.971 269.84C412.691 269.84 413.238 269.72 413.611 269.48C413.998 269.227 414.191 268.867 414.191 268.4C414.191 268.013 414.064 267.707 413.811 267.48C413.558 267.253 413.138 267.073 412.551 266.94L410.911 266.56C410.084 266.373 409.451 266.053 409.011 265.6C408.571 265.147 408.351 264.587 408.351 263.92C408.351 263.053 408.691 262.353 409.371 261.82C410.051 261.287 410.958 261.02 412.091 261.02C412.771 261.02 413.418 261.133 414.031 261.36C414.644 261.573 415.158 261.887 415.571 262.3L415.031 263.48C414.138 262.72 413.158 262.34 412.091 262.34C411.411 262.34 410.878 262.473 410.491 262.74C410.118 262.993 409.931 263.353 409.931 263.82C409.931 264.207 410.044 264.52 410.271 264.76C410.511 264.987 410.891 265.16 411.411 265.28L413.071 265.68C413.978 265.893 414.651 266.22 415.091 266.66C415.531 267.087 415.751 267.647 415.751 268.34C415.751 269.193 415.404 269.873 414.711 270.38C414.031 270.887 413.098 271.14 411.911 271.14ZM95.5824 305V295.26H97.2024V305H95.5824ZM95.4224 291.04H97.3824V292.86H95.4224V291.04ZM105.531 295.02C107.864 295.02 109.031 296.307 109.031 298.88V305H107.411V298.98C107.411 298.073 107.231 297.413 106.871 297C106.524 296.587 105.964 296.38 105.191 296.38C104.298 296.38 103.584 296.653 103.051 297.2C102.518 297.747 102.251 298.487 102.251 299.42V305H100.631V295.26H102.231V296.86C102.551 296.26 102.998 295.807 103.571 295.5C104.144 295.18 104.798 295.02 105.531 295.02ZM116.678 303.84C116.971 303.84 117.265 303.82 117.558 303.78L117.478 305.06C117.171 305.113 116.838 305.14 116.478 305.14C115.305 305.14 114.418 304.833 113.818 304.22C113.231 303.607 112.938 302.753 112.938 301.66V296.54H111.038V295.26H112.938V292.3H114.558V295.26H117.318V296.54H114.558V301.54C114.558 303.073 115.265 303.84 116.678 303.84ZM123.635 305.14C122.715 305.14 121.902 304.933 121.195 304.52C120.502 304.107 119.962 303.52 119.575 302.76C119.202 301.987 119.015 301.093 119.015 300.08C119.015 299.067 119.202 298.18 119.575 297.42C119.962 296.647 120.502 296.053 121.195 295.64C121.902 295.227 122.715 295.02 123.635 295.02C124.555 295.02 125.368 295.227 126.075 295.64C126.782 296.053 127.322 296.647 127.695 297.42C128.082 298.18 128.275 299.067 128.275 300.08C128.275 301.093 128.082 301.987 127.695 302.76C127.322 303.52 126.782 304.107 126.075 304.52C125.368 304.933 124.555 305.14 123.635 305.14ZM123.635 303.8C124.595 303.8 125.328 303.487 125.835 302.86C126.355 302.22 126.615 301.293 126.615 300.08C126.615 298.893 126.355 297.98 125.835 297.34C125.315 296.687 124.582 296.36 123.635 296.36C122.688 296.36 121.955 296.687 121.435 297.34C120.915 297.98 120.655 298.893 120.655 300.08C120.655 301.28 120.908 302.2 121.415 302.84C121.935 303.48 122.675 303.8 123.635 303.8ZM140.925 303.84C141.218 303.84 141.512 303.82 141.805 303.78L141.725 305.06C141.418 305.113 141.085 305.14 140.725 305.14C139.552 305.14 138.665 304.833 138.065 304.22C137.478 303.607 137.185 302.753 137.185 301.66V296.54H135.285V295.26H137.185V292.3H138.805V295.26H141.565V296.54H138.805V301.54C138.805 303.073 139.512 303.84 140.925 303.84ZM148.742 295.02C151.075 295.02 152.242 296.307 152.242 298.88V305H150.622V298.98C150.622 298.073 150.442 297.413 150.082 297C149.735 296.587 149.175 296.38 148.402 296.38C147.508 296.38 146.795 296.653 146.262 297.2C145.728 297.747 145.462 298.487 145.462 299.42V305H143.842V290.9H145.462V296.82C145.782 296.233 146.222 295.787 146.782 295.48C147.355 295.173 148.008 295.02 148.742 295.02ZM163.769 300.38H156.649C156.702 301.513 157.009 302.373 157.569 302.96C158.129 303.533 158.922 303.82 159.949 303.82C161.082 303.82 162.122 303.433 163.069 302.66L163.609 303.84C163.182 304.24 162.636 304.56 161.969 304.8C161.302 305.027 160.622 305.14 159.929 305.14C158.409 305.14 157.209 304.693 156.329 303.8C155.462 302.907 155.029 301.673 155.029 300.1C155.029 299.1 155.222 298.22 155.609 297.46C155.996 296.687 156.536 296.087 157.229 295.66C157.936 295.233 158.736 295.02 159.629 295.02C160.922 295.02 161.936 295.447 162.669 296.3C163.402 297.14 163.769 298.3 163.769 299.78V300.38ZM159.649 296.28C158.796 296.28 158.109 296.547 157.589 297.08C157.082 297.613 156.782 298.367 156.689 299.34H162.349C162.322 298.353 162.076 297.6 161.609 297.08C161.142 296.547 160.489 296.28 159.649 296.28ZM175.412 305.14C173.772 305.14 172.472 304.72 171.512 303.88L172.052 302.68C172.572 303.093 173.099 303.393 173.632 303.58C174.179 303.753 174.792 303.84 175.472 303.84C176.192 303.84 176.739 303.72 177.112 303.48C177.499 303.227 177.692 302.867 177.692 302.4C177.692 302.013 177.565 301.707 177.312 301.48C177.059 301.253 176.639 301.073 176.052 300.94L174.412 300.56C173.585 300.373 172.952 300.053 172.512 299.6C172.072 299.147 171.852 298.587 171.852 297.92C171.852 297.053 172.192 296.353 172.872 295.82C173.552 295.287 174.459 295.02 175.592 295.02C176.272 295.02 176.919 295.133 177.532 295.36C178.145 295.573 178.659 295.887 179.072 296.3L178.532 297.48C177.639 296.72 176.659 296.34 175.592 296.34C174.912 296.34 174.379 296.473 173.992 296.74C173.619 296.993 173.432 297.353 173.432 297.82C173.432 298.207 173.545 298.52 173.772 298.76C174.012 298.987 174.392 299.16 174.912 299.28L176.572 299.68C177.479 299.893 178.152 300.22 178.592 300.66C179.032 301.087 179.252 301.647 179.252 302.34C179.252 303.193 178.905 303.873 178.212 304.38C177.532 304.887 176.599 305.14 175.412 305.14ZM182.121 305V295.26H183.741V305H182.121ZM181.961 291.04H183.921V292.86H181.961V291.04ZM188.63 303.72H194.89V305H186.63V303.88L192.71 296.54H186.83V295.26H194.67V296.44L188.63 303.72ZM205.574 300.38H198.454C198.507 301.513 198.814 302.373 199.374 302.96C199.934 303.533 200.727 303.82 201.754 303.82C202.887 303.82 203.927 303.433 204.874 302.66L205.414 303.84C204.987 304.24 204.44 304.56 203.774 304.8C203.107 305.027 202.427 305.14 201.734 305.14C200.214 305.14 199.014 304.693 198.134 303.8C197.267 302.907 196.834 301.673 196.834 300.1C196.834 299.1 197.027 298.22 197.414 297.46C197.8 296.687 198.34 296.087 199.034 295.66C199.74 295.233 200.54 295.02 201.434 295.02C202.727 295.02 203.74 295.447 204.474 296.3C205.207 297.14 205.574 298.3 205.574 299.78V300.38ZM201.454 296.28C200.6 296.28 199.914 296.547 199.394 297.08C198.887 297.613 198.587 298.367 198.494 299.34H204.154C204.127 298.353 203.88 297.6 203.414 297.08C202.947 296.547 202.294 296.28 201.454 296.28ZM217.957 305.14C217.037 305.14 216.223 304.933 215.517 304.52C214.823 304.107 214.283 303.52 213.897 302.76C213.523 301.987 213.337 301.093 213.337 300.08C213.337 299.067 213.523 298.18 213.897 297.42C214.283 296.647 214.823 296.053 215.517 295.64C216.223 295.227 217.037 295.02 217.957 295.02C218.877 295.02 219.69 295.227 220.397 295.64C221.103 296.053 221.643 296.647 222.017 297.42C222.403 298.18 222.597 299.067 222.597 300.08C222.597 301.093 222.403 301.987 222.017 302.76C221.643 303.52 221.103 304.107 220.397 304.52C219.69 304.933 218.877 305.14 217.957 305.14ZM217.957 303.8C218.917 303.8 219.65 303.487 220.157 302.86C220.677 302.22 220.937 301.293 220.937 300.08C220.937 298.893 220.677 297.98 220.157 297.34C219.637 296.687 218.903 296.36 217.957 296.36C217.01 296.36 216.277 296.687 215.757 297.34C215.237 297.98 214.977 298.893 214.977 300.08C214.977 301.28 215.23 302.2 215.737 302.84C216.257 303.48 216.997 303.8 217.957 303.8ZM227.551 295.26H230.311V296.54H227.551V305H225.931V296.54H224.031V295.26H225.931V294.94C225.931 293.647 226.251 292.667 226.891 292C227.544 291.333 228.544 290.96 229.891 290.88L230.691 290.84L230.811 292.1L229.891 292.16C229.078 292.213 228.484 292.447 228.111 292.86C227.738 293.26 227.551 293.88 227.551 294.72V295.26ZM242.19 303.84C242.483 303.84 242.776 303.82 243.07 303.78L242.99 305.06C242.683 305.113 242.35 305.14 241.99 305.14C240.816 305.14 239.93 304.833 239.33 304.22C238.743 303.607 238.45 302.753 238.45 301.66V296.54H236.55V295.26H238.45V292.3H240.07V295.26H242.83V296.54H240.07V301.54C240.07 303.073 240.776 303.84 242.19 303.84ZM250.007 295.02C252.34 295.02 253.507 296.307 253.507 298.88V305H251.887V298.98C251.887 298.073 251.707 297.413 251.347 297C251 296.587 250.44 296.38 249.667 296.38C248.773 296.38 248.06 296.653 247.527 297.2C246.993 297.747 246.727 298.487 246.727 299.42V305H245.107V290.9H246.727V296.82C247.047 296.233 247.487 295.787 248.047 295.48C248.62 295.173 249.273 295.02 250.007 295.02ZM265.034 300.38H257.914C257.967 301.513 258.274 302.373 258.834 302.96C259.394 303.533 260.187 303.82 261.214 303.82C262.347 303.82 263.387 303.433 264.334 302.66L264.874 303.84C264.447 304.24 263.901 304.56 263.234 304.8C262.567 305.027 261.887 305.14 261.194 305.14C259.674 305.14 258.474 304.693 257.594 303.8C256.727 302.907 256.294 301.673 256.294 300.1C256.294 299.1 256.487 298.22 256.874 297.46C257.261 296.687 257.801 296.087 258.494 295.66C259.201 295.233 260.001 295.02 260.894 295.02C262.187 295.02 263.201 295.447 263.934 296.3C264.667 297.14 265.034 298.3 265.034 299.78V300.38ZM260.914 296.28C260.061 296.28 259.374 296.547 258.854 297.08C258.347 297.613 258.047 298.367 257.954 299.34H263.614C263.587 298.353 263.341 297.6 262.874 297.08C262.407 296.547 261.754 296.28 260.914 296.28ZM284.217 295.02C286.377 295.02 287.457 296.307 287.457 298.88V305H285.837V298.96C285.837 298.067 285.677 297.413 285.357 297C285.05 296.587 284.55 296.38 283.857 296.38C283.044 296.38 282.404 296.653 281.937 297.2C281.47 297.747 281.237 298.493 281.237 299.44V305H279.617V298.96C279.617 298.053 279.457 297.4 279.137 297C278.817 296.587 278.31 296.38 277.617 296.38C276.804 296.38 276.164 296.653 275.697 297.2C275.23 297.747 274.997 298.493 274.997 299.44V305H273.377V295.26H274.977V296.8C275.27 296.227 275.677 295.787 276.197 295.48C276.717 295.173 277.317 295.02 277.997 295.02C279.504 295.02 280.497 295.66 280.977 296.94C281.257 296.34 281.684 295.873 282.257 295.54C282.83 295.193 283.484 295.02 284.217 295.02ZM294.768 295.02C296.008 295.02 296.928 295.34 297.528 295.98C298.142 296.607 298.448 297.567 298.448 298.86V305H296.868V303.34C296.615 303.913 296.228 304.36 295.708 304.68C295.188 304.987 294.588 305.14 293.908 305.14C293.282 305.14 292.702 305.013 292.168 304.76C291.648 304.507 291.235 304.153 290.928 303.7C290.622 303.247 290.468 302.747 290.468 302.2C290.468 301.467 290.655 300.9 291.028 300.5C291.402 300.087 292.015 299.793 292.868 299.62C293.722 299.433 294.908 299.34 296.428 299.34H296.868V298.68C296.868 297.867 296.702 297.28 296.368 296.92C296.035 296.547 295.495 296.36 294.748 296.36C293.628 296.36 292.515 296.707 291.408 297.4L290.868 296.22C291.375 295.86 291.982 295.573 292.688 295.36C293.408 295.133 294.102 295.02 294.768 295.02ZM294.128 303.86C294.928 303.86 295.582 303.593 296.088 303.06C296.608 302.513 296.868 301.813 296.868 300.96V300.38H296.508C295.335 300.38 294.442 300.433 293.828 300.54C293.215 300.633 292.775 300.8 292.508 301.04C292.255 301.267 292.128 301.607 292.128 302.06C292.128 302.58 292.315 303.013 292.688 303.36C293.075 303.693 293.555 303.86 294.128 303.86ZM307.334 296.42L306.274 296.52C305.274 296.613 304.547 296.927 304.094 297.46C303.654 297.993 303.434 298.653 303.434 299.44V305H301.814V295.26H303.394V296.96C303.94 295.827 305.014 295.193 306.614 295.06L307.194 295.02L307.334 296.42ZM317.944 305H315.844L310.884 300.34V305H309.264V290.9H310.884V299.68L315.424 295.28H317.484L312.644 299.94L317.944 305ZM327.649 300.38H320.529C320.582 301.513 320.889 302.373 321.449 302.96C322.009 303.533 322.802 303.82 323.829 303.82C324.962 303.82 326.002 303.433 326.949 302.66L327.489 303.84C327.062 304.24 326.515 304.56 325.849 304.8C325.182 305.027 324.502 305.14 323.809 305.14C322.289 305.14 321.089 304.693 320.209 303.8C319.342 302.907 318.909 301.673 318.909 300.1C318.909 299.1 319.102 298.22 319.489 297.46C319.875 296.687 320.415 296.087 321.109 295.66C321.815 295.233 322.615 295.02 323.509 295.02C324.802 295.02 325.815 295.447 326.549 296.3C327.282 297.14 327.649 298.3 327.649 299.78V300.38ZM323.529 296.28C322.675 296.28 321.989 296.547 321.469 297.08C320.962 297.613 320.662 298.367 320.569 299.34H326.229C326.202 298.353 325.955 297.6 325.489 297.08C325.022 296.547 324.369 296.28 323.529 296.28ZM334.657 303.84C334.95 303.84 335.244 303.82 335.537 303.78L335.457 305.06C335.15 305.113 334.817 305.14 334.457 305.14C333.284 305.14 332.397 304.833 331.797 304.22C331.21 303.607 330.917 302.753 330.917 301.66V296.54H329.017V295.26H330.917V292.3H332.537V295.26H335.297V296.54H332.537V301.54C332.537 303.073 333.244 303.84 334.657 303.84ZM337.607 302.96H339.647V305H337.607V302.96Z" fill="#585858"/>
</svg>
