<svg width="139" height="18" viewBox="0 0 139 18" fill="none" xmlns="http://www.w3.org/2000/svg">
<path d="M5.688 17.154C4.66133 17.154 3.73733 16.978 2.916 16.626C2.09467 16.2593 1.44933 15.746 0.98 15.086C0.510667 14.426 0.276 13.656 0.276 12.776H2.96C3.01867 13.436 3.27533 13.9787 3.73 14.404C4.19933 14.8293 4.852 15.042 5.688 15.042C6.55333 15.042 7.228 14.8367 7.712 14.426C8.196 14.0007 8.438 13.458 8.438 12.798C8.438 12.2847 8.284 11.8667 7.976 11.544C7.68267 11.2213 7.30867 10.972 6.854 10.796C6.414 10.62 5.798 10.4293 5.006 10.224C4.00867 9.96 3.19467 9.696 2.564 9.432C1.948 9.15333 1.42 8.728 0.98 8.156C0.54 7.584 0.32 6.82133 0.32 5.868C0.32 4.988 0.54 4.218 0.98 3.558C1.42 2.898 2.036 2.392 2.828 2.04C3.62 1.688 4.53667 1.512 5.578 1.512C7.05933 1.512 8.26933 1.886 9.208 2.634C10.1613 3.36733 10.6893 4.37933 10.792 5.67H8.02C7.976 5.11267 7.712 4.636 7.228 4.24C6.744 3.844 6.106 3.646 5.314 3.646C4.59533 3.646 4.00867 3.82933 3.554 4.196C3.09933 4.56267 2.872 5.09067 2.872 5.78C2.872 6.24933 3.01133 6.638 3.29 6.946C3.58333 7.23933 3.95 7.474 4.39 7.65C4.83 7.826 5.43133 8.01667 6.194 8.222C7.206 8.50067 8.02733 8.77933 8.658 9.058C9.30333 9.33667 9.846 9.76933 10.286 10.356C10.7407 10.928 10.968 11.698 10.968 12.666C10.968 13.4433 10.7553 14.1767 10.33 14.866C9.91933 15.5553 9.31067 16.1127 8.504 16.538C7.712 16.9487 6.77333 17.154 5.688 17.154ZM19.1853 17.198C18.0413 17.198 17.0073 16.9413 16.0833 16.428C15.1593 15.9 14.4333 15.1667 13.9053 14.228C13.3773 13.2747 13.1133 12.1747 13.1133 10.928C13.1133 9.696 13.3847 8.60333 13.9273 7.65C14.47 6.69667 15.2107 5.96333 16.1493 5.45C17.088 4.93667 18.1367 4.68 19.2953 4.68C20.454 4.68 21.5027 4.93667 22.4413 5.45C23.38 5.96333 24.1207 6.69667 24.6633 7.65C25.206 8.60333 25.4773 9.696 25.4773 10.928C25.4773 12.16 25.1987 13.2527 24.6413 14.206C24.084 15.1593 23.3213 15.9 22.3533 16.428C21.4 16.9413 20.344 17.198 19.1853 17.198ZM19.1853 15.02C19.8307 15.02 20.432 14.866 20.9893 14.558C21.5613 14.25 22.0233 13.788 22.3753 13.172C22.7273 12.556 22.9033 11.808 22.9033 10.928C22.9033 10.048 22.7347 9.30733 22.3973 8.706C22.06 8.09 21.6127 7.628 21.0553 7.32C20.498 7.012 19.8967 6.858 19.2513 6.858C18.606 6.858 18.0047 7.012 17.4473 7.32C16.9047 7.628 16.472 8.09 16.1493 8.706C15.8267 9.30733 15.6653 10.048 15.6653 10.928C15.6653 12.2333 15.9953 13.2453 16.6553 13.964C17.33 14.668 18.1733 15.02 19.1853 15.02ZM27.1206 10.928C27.1206 9.68133 27.37 8.58867 27.8686 7.65C28.382 6.69667 29.086 5.96333 29.9806 5.45C30.8753 4.93667 31.902 4.68 33.0606 4.68C34.5273 4.68 35.7373 5.032 36.6906 5.736C37.6586 6.42533 38.3113 7.41533 38.6486 8.706H35.9426C35.7226 8.10467 35.3706 7.63533 34.8866 7.298C34.4026 6.96067 33.794 6.792 33.0606 6.792C32.034 6.792 31.2126 7.15867 30.5966 7.892C29.9953 8.61067 29.6946 9.62267 29.6946 10.928C29.6946 12.2333 29.9953 13.2527 30.5966 13.986C31.2126 14.7193 32.034 15.086 33.0606 15.086C34.5126 15.086 35.4733 14.448 35.9426 13.172H38.6486C38.2966 14.404 37.6366 15.3867 36.6686 16.12C35.7006 16.8387 34.498 17.198 33.0606 17.198C31.902 17.198 30.8753 16.9413 29.9806 16.428C29.086 15.9 28.382 15.1667 27.8686 14.228C27.37 13.2747 27.1206 12.1747 27.1206 10.928ZM42.424 3.272C41.9694 3.272 41.588 3.118 41.28 2.81C40.972 2.502 40.818 2.12067 40.818 1.666C40.818 1.21133 40.972 0.829999 41.28 0.522C41.588 0.213999 41.9694 0.0599991 42.424 0.0599991C42.864 0.0599991 43.238 0.213999 43.546 0.522C43.854 0.829999 44.008 1.21133 44.008 1.666C44.008 2.12067 43.854 2.502 43.546 2.81C43.238 3.118 42.864 3.272 42.424 3.272ZM43.656 4.878V17H41.148V4.878H43.656ZM46.1128 10.884C46.1128 9.66667 46.3622 8.58867 46.8608 7.65C47.3742 6.71133 48.0635 5.98533 48.9288 5.472C49.8088 4.944 50.7768 4.68 51.8328 4.68C52.7862 4.68 53.6148 4.87067 54.3188 5.252C55.0375 5.61867 55.6095 6.08067 56.0348 6.638V4.878H58.5648V17H56.0348V15.196C55.6095 15.768 55.0302 16.2447 54.2968 16.626C53.5635 17.0073 52.7275 17.198 51.7888 17.198C50.7475 17.198 49.7942 16.934 48.9288 16.406C48.0635 15.8633 47.3742 15.1153 46.8608 14.162C46.3622 13.194 46.1128 12.1013 46.1128 10.884ZM56.0348 10.928C56.0348 10.092 55.8588 9.366 55.5068 8.75C55.1695 8.134 54.7222 7.66467 54.1648 7.342C53.6075 7.01933 53.0062 6.858 52.3608 6.858C51.7155 6.858 51.1142 7.01933 50.5568 7.342C49.9995 7.65 49.5448 8.112 49.1928 8.728C48.8555 9.32933 48.6868 10.048 48.6868 10.884C48.6868 11.72 48.8555 12.4533 49.1928 13.084C49.5448 13.7147 49.9995 14.1987 50.5568 14.536C51.1288 14.8587 51.7302 15.02 52.3608 15.02C53.0062 15.02 53.6075 14.8587 54.1648 14.536C54.7222 14.2133 55.1695 13.744 55.5068 13.128C55.8588 12.4973 56.0348 11.764 56.0348 10.928ZM64.367 0.72V17H61.859V0.72H64.367ZM89.4786 1.71V17H86.9706V6.528L82.3066 17H80.5686L75.8826 6.528V17H73.3746V1.71H76.0806L81.4486 13.7L86.7946 1.71H89.4786ZM103.885 10.642C103.885 11.0967 103.856 11.5073 103.797 11.874H94.535C94.6083 12.842 94.9677 13.6193 95.613 14.206C96.2583 14.7927 97.0503 15.086 97.989 15.086C99.3383 15.086 100.292 14.5213 100.849 13.392H103.555C103.188 14.5067 102.521 15.4233 101.553 16.142C100.6 16.846 99.4117 17.198 97.989 17.198C96.8303 17.198 95.789 16.9413 94.865 16.428C93.9557 15.9 93.237 15.1667 92.709 14.228C92.1957 13.2747 91.939 12.1747 91.939 10.928C91.939 9.68133 92.1883 8.58867 92.687 7.65C93.2003 6.69667 93.9117 5.96333 94.821 5.45C95.745 4.93667 96.801 4.68 97.989 4.68C99.133 4.68 100.152 4.92933 101.047 5.428C101.942 5.92667 102.638 6.63067 103.137 7.54C103.636 8.43467 103.885 9.46867 103.885 10.642ZM101.267 9.85C101.252 8.926 100.922 8.18533 100.277 7.628C99.6317 7.07067 98.8323 6.792 97.879 6.792C97.0137 6.792 96.273 7.07067 95.657 7.628C95.041 8.17067 94.6743 8.91133 94.557 9.85H101.267ZM105.517 10.884C105.517 9.66667 105.766 8.58867 106.265 7.65C106.778 6.71133 107.468 5.98533 108.333 5.472C109.213 4.944 110.188 4.68 111.259 4.68C112.051 4.68 112.828 4.856 113.591 5.208C114.368 5.54533 114.984 6 115.439 6.572V0.72H117.969V17H115.439V15.174C115.028 15.7607 114.456 16.2447 113.723 16.626C113.004 17.0073 112.176 17.198 111.237 17.198C110.181 17.198 109.213 16.934 108.333 16.406C107.468 15.8633 106.778 15.1153 106.265 14.162C105.766 13.194 105.517 12.1013 105.517 10.884ZM115.439 10.928C115.439 10.092 115.263 9.366 114.911 8.75C114.574 8.134 114.126 7.66467 113.569 7.342C113.012 7.01933 112.41 6.858 111.765 6.858C111.12 6.858 110.518 7.01933 109.961 7.342C109.404 7.65 108.949 8.112 108.597 8.728C108.26 9.32933 108.091 10.048 108.091 10.884C108.091 11.72 108.26 12.4533 108.597 13.084C108.949 13.7147 109.404 14.1987 109.961 14.536C110.533 14.8587 111.134 15.02 111.765 15.02C112.41 15.02 113.012 14.8587 113.569 14.536C114.126 14.2133 114.574 13.744 114.911 13.128C115.263 12.4973 115.439 11.764 115.439 10.928ZM122.539 3.272C122.085 3.272 121.703 3.118 121.395 2.81C121.087 2.502 120.933 2.12067 120.933 1.666C120.933 1.21133 121.087 0.829999 121.395 0.522C121.703 0.213999 122.085 0.0599991 122.539 0.0599991C122.979 0.0599991 123.353 0.213999 123.661 0.522C123.969 0.829999 124.123 1.21133 124.123 1.666C124.123 2.12067 123.969 2.502 123.661 2.81C123.353 3.118 122.979 3.272 122.539 3.272ZM123.771 4.878V17H121.263V4.878H123.771ZM126.228 10.884C126.228 9.66667 126.477 8.58867 126.976 7.65C127.489 6.71133 128.179 5.98533 129.044 5.472C129.924 4.944 130.892 4.68 131.948 4.68C132.901 4.68 133.73 4.87067 134.434 5.252C135.153 5.61867 135.725 6.08067 136.15 6.638V4.878H138.68V17H136.15V15.196C135.725 15.768 135.145 16.2447 134.412 16.626C133.679 17.0073 132.843 17.198 131.904 17.198C130.863 17.198 129.909 16.934 129.044 16.406C128.179 15.8633 127.489 15.1153 126.976 14.162C126.477 13.194 126.228 12.1013 126.228 10.884ZM136.15 10.928C136.15 10.092 135.974 9.366 135.622 8.75C135.285 8.134 134.837 7.66467 134.28 7.342C133.723 7.01933 133.121 6.858 132.476 6.858C131.831 6.858 131.229 7.01933 130.672 7.342C130.115 7.65 129.66 8.112 129.308 8.728C128.971 9.32933 128.802 10.048 128.802 10.884C128.802 11.72 128.971 12.4533 129.308 13.084C129.66 13.7147 130.115 14.1987 130.672 14.536C131.244 14.8587 131.845 15.02 132.476 15.02C133.121 15.02 133.723 14.8587 134.28 14.536C134.837 14.2133 135.285 13.744 135.622 13.128C135.974 12.4973 136.15 11.764 136.15 10.928Z" fill="#2B3377"/>
</svg>
