<svg width="130" height="24" viewBox="0 0 157 24" fill="none" xmlns="http://www.w3.org/2000/svg">
<path d="M16.32 2.06V5.45H10.74V23H6.54V5.45H0.96V2.06H16.32ZM34.8345 14.33C34.8345 14.93 34.7945 15.47 34.7145 15.95H22.5645C22.6645 17.15 23.0845 18.09 23.8245 18.77C24.5645 19.45 25.4745 19.79 26.5545 19.79C28.1145 19.79 29.2245 19.12 29.8845 17.78H34.4145C33.9345 19.38 33.0145 20.7 31.6545 21.74C30.2945 22.76 28.6245 23.27 26.6445 23.27C25.0445 23.27 23.6045 22.92 22.3245 22.22C21.0645 21.5 20.0745 20.49 19.3545 19.19C18.6545 17.89 18.3045 16.39 18.3045 14.69C18.3045 12.97 18.6545 11.46 19.3545 10.16C20.0545 8.86 21.0345 7.86 22.2945 7.16C23.5545 6.46 25.0045 6.11 26.6445 6.11C28.2245 6.11 29.6345 6.45 30.8745 7.13C32.1345 7.81 33.1045 8.78 33.7845 10.04C34.4845 11.28 34.8345 12.71 34.8345 14.33ZM30.4845 13.13C30.4645 12.05 30.0745 11.19 29.3145 10.55C28.5545 9.89 27.6245 9.56 26.5245 9.56C25.4845 9.56 24.6045 9.88 23.8845 10.52C23.1845 11.14 22.7545 12.01 22.5945 13.13H30.4845ZM36.8201 14.63C36.8201 12.95 37.1501 11.46 37.8101 10.16C38.4901 8.86 39.4001 7.86 40.5401 7.16C41.7001 6.46 42.9901 6.11 44.4101 6.11C45.6501 6.11 46.7301 6.36 47.6501 6.86C48.5901 7.36 49.3401 7.99 49.9001 8.75V6.38H54.1301V23H49.9001V20.57C49.3601 21.35 48.6101 22 47.6501 22.52C46.7101 23.02 45.6201 23.27 44.3801 23.27C42.9801 23.27 41.7001 22.91 40.5401 22.19C39.4001 21.47 38.4901 20.46 37.8101 19.16C37.1501 17.84 36.8201 16.33 36.8201 14.63ZM49.9001 14.69C49.9001 13.67 49.7001 12.8 49.3001 12.08C48.9001 11.34 48.3601 10.78 47.6801 10.4C47.0001 10 46.2701 9.8 45.4901 9.8C44.7101 9.8 43.9901 9.99 43.3301 10.37C42.6701 10.75 42.1301 11.31 41.7101 12.05C41.3101 12.77 41.1101 13.63 41.1101 14.63C41.1101 15.63 41.3101 16.51 41.7101 17.27C42.1301 18.01 42.6701 18.58 43.3301 18.98C44.0101 19.38 44.7301 19.58 45.4901 19.58C46.2701 19.58 47.0001 19.39 47.6801 19.01C48.3601 18.61 48.9001 18.05 49.3001 17.33C49.7001 16.59 49.9001 15.71 49.9001 14.69ZM78.8721 6.14C80.9121 6.14 82.5521 6.77 83.7921 8.03C85.0521 9.27 85.6821 11.01 85.6821 13.25V23H81.4821V13.82C81.4821 12.52 81.1521 11.53 80.4921 10.85C79.8321 10.15 78.9321 9.8 77.7921 9.8C76.6521 9.8 75.7421 10.15 75.0621 10.85C74.4021 11.53 74.0721 12.52 74.0721 13.82V23H69.8721V13.82C69.8721 12.52 69.5421 11.53 68.8821 10.85C68.2221 10.15 67.3221 9.8 66.1821 9.8C65.0221 9.8 64.1021 10.15 63.4221 10.85C62.7621 11.53 62.4321 12.52 62.4321 13.82V23H58.2321V6.38H62.4321V8.39C62.9721 7.69 63.6621 7.14 64.5021 6.74C65.3621 6.34 66.3021 6.14 67.3221 6.14C68.6221 6.14 69.7821 6.42 70.8021 6.98C71.8221 7.52 72.6121 8.3 73.1721 9.32C73.7121 8.36 74.4921 7.59 75.5121 7.01C76.5521 6.43 77.6721 6.14 78.8721 6.14Z" fill="#5565F0"/>
<path d="M102.598 2.06V5.45H93.8677V10.82H100.558V14.15H93.8677V23H89.6677V2.06H102.598ZM109.776 0.8V23H105.576V0.8H109.776ZM121.305 23.27C119.705 23.27 118.265 22.92 116.985 22.22C115.705 21.5 114.695 20.49 113.955 19.19C113.235 17.89 112.875 16.39 112.875 14.69C112.875 12.99 113.245 11.49 113.985 10.19C114.745 8.89 115.775 7.89 117.075 7.19C118.375 6.47 119.825 6.11 121.425 6.11C123.025 6.11 124.475 6.47 125.775 7.19C127.075 7.89 128.095 8.89 128.835 10.19C129.595 11.49 129.975 12.99 129.975 14.69C129.975 16.39 129.585 17.89 128.805 19.19C128.045 20.49 127.005 21.5 125.685 22.22C124.385 22.92 122.925 23.27 121.305 23.27ZM121.305 19.61C122.065 19.61 122.775 19.43 123.435 19.07C124.115 18.69 124.655 18.13 125.055 17.39C125.455 16.65 125.655 15.75 125.655 14.69C125.655 13.11 125.235 11.9 124.395 11.06C123.575 10.2 122.565 9.77 121.365 9.77C120.165 9.77 119.155 10.2 118.335 11.06C117.535 11.9 117.135 13.11 117.135 14.69C117.135 16.27 117.525 17.49 118.305 18.35C119.105 19.19 120.105 19.61 121.305 19.61ZM156.096 6.38L151.236 23H146.706L143.676 11.39L140.646 23H136.086L131.196 6.38H135.456L138.396 19.04L141.576 6.38H146.016L149.136 19.01L152.076 6.38H156.096Z" fill="#D77F3F"/>
</svg>
